<?xml version="1.0" encoding="UTF-8" standalone="no"?>
<!-- Created with Inkscape (http://www.inkscape.org/) -->

<svg
   xmlns:dc="http://purl.org/dc/elements/1.1/"
   xmlns:cc="http://creativecommons.org/ns#"
   xmlns:rdf="http://www.w3.org/1999/02/22-rdf-syntax-ns#"
   xmlns:svg="http://www.w3.org/2000/svg"
   xmlns="http://www.w3.org/2000/svg"
   xmlns:sodipodi="http://sodipodi.sourceforge.net/DTD/sodipodi-0.dtd"
   xmlns:inkscape="http://www.inkscape.org/namespaces/inkscape"
   version="1.1"
   id="svg2"
   xml:space="preserve"
   width="2303.9954"
   height="1727.9965"
   viewBox="0 0 2303.9954 1727.9965"
   sodipodi:docname="calib.io_charuco_609.6x457.2_8x11_45_DICT_4X4_holes.svg"
   inkscape:version="0.92.3 (2405546, 2018-03-11)"><metadata
     id="metadata8"><rdf:RDF><cc:Work
         rdf:about=""><dc:format>image/svg+xml</dc:format><dc:type
           rdf:resource="http://purl.org/dc/dcmitype/StillImage" /><dc:title></dc:title></cc:Work></rdf:RDF></metadata><defs
     id="defs6" /><sodipodi:namedview
     pagecolor="#ffffff"
     bordercolor="#666666"
     borderopacity="1"
     objecttolerance="10"
     gridtolerance="10"
     guidetolerance="10"
     inkscape:pageopacity="0"
     inkscape:pageshadow="2"
     inkscape:window-width="1678"
     inkscape:window-height="1141"
     id="namedview4"
     showgrid="false"
     inkscape:zoom="3.0903248"
     inkscape:cx="1068.0407"
     inkscape:cy="1654.9799"
     inkscape:window-x="0"
     inkscape:window-y="25"
     inkscape:window-maximized="0"
     inkscape:current-layer="layer1" /><g
     id="g10"
     inkscape:groupmode="layer"
     inkscape:label="calib.io_charuco_609.6x457.2_8x11_45_DICT_4X4_holes"
     transform="matrix(1.3333333,0,0,-1.3333333,0,1727.9965)"><g
       id="g12"
       transform="matrix(2.83464,0,0,-2.83464,0,1295.9974)"><g
         id="g14"><g
           id="g16"><g
             id="g18"><g
               id="g20"><path
                 d="m 62.925,54.225 h 33.75 c 0,0 0,0 0,0 v 33.75 c 0,0 0,0 0,0 h -33.75 c 0,0 0,0 0,0 v -33.75 c 0,0 0,0 0,0 z"
                 style="fill:#000000;fill-opacity:1;fill-rule:nonzero;stroke:none"
                 id="path22"
                 inkscape:connector-curvature="0" /></g></g><g
             id="g24"><g
               id="g26"><path
                 d="m 68.55,59.85 h 5.625 v 5.625 H 68.55 Z m 11.25,0 h 5.625 v 5.625 H 79.8 Z m 5.625,0 h 5.625 v 5.625 h -5.625 z m -11.25,5.625 H 79.8 V 71.1 h -5.625 z m 11.25,0 H 91.05 V 71.1 H 85.425 Z M 79.8,71.1 h 5.625 v 5.625 H 79.8 Z m 5.625,0 h 5.625 v 5.625 H 85.425 Z M 79.8,76.725 h 5.625 V 82.35 H 79.8 Z"
                 style="fill:#ffffff;fill-opacity:1;fill-rule:nonzero;stroke:none"
                 id="path28"
                 inkscape:connector-curvature="0" /></g></g><g
             id="g30"><g
               id="g32"><path
                 d="m 102.3,48.6 h 45 c 0,0 0,0 0,0 v 45 c 0,0 0,0 0,0 h -45 c 0,0 0,0 0,0 v -45 c 0,0 0,0 0,0 z"
                 style="fill:#000000;fill-opacity:1;fill-rule:nonzero;stroke:none"
                 id="path34"
                 inkscape:connector-curvature="0" /></g></g><g
             id="g36"><g
               id="g38"><path
                 d="m 152.925,54.225 h 33.75 c 0,0 0,0 0,0 v 33.75 c 0,0 0,0 0,0 h -33.75 c 0,0 0,0 0,0 v -33.75 c 0,0 0,0 0,0 z"
                 style="fill:#000000;fill-opacity:1;fill-rule:nonzero;stroke:none"
                 id="path40"
                 inkscape:connector-curvature="0" /></g></g><g
             id="g42"><g
               id="g44"><path
                 d="m 158.55,65.475 h 5.625 V 71.1 h -5.625 z m 5.625,0 H 169.8 V 71.1 h -5.625 z m 5.625,0 h 5.625 V 71.1 H 169.8 Z m 5.625,0 h 5.625 V 71.1 h -5.625 z M 158.55,71.1 h 5.625 v 5.625 h -5.625 z m 16.875,0 h 5.625 v 5.625 h -5.625 z m -16.875,5.625 h 5.625 v 5.625 h -5.625 z m 11.25,0 h 5.625 V 82.35 H 169.8 Z"
                 style="fill:#ffffff;fill-opacity:1;fill-rule:nonzero;stroke:none"
                 id="path46"
                 inkscape:connector-curvature="0" /></g></g><g
             id="g48"><g
               id="g50"><path
                 d="m 192.3,48.6 h 45 c 0,0 0,0 0,0 v 45 c 0,0 0,0 0,0 h -45 c 0,0 0,0 0,0 v -45 c 0,0 0,0 0,0 z"
                 style="fill:#000000;fill-opacity:1;fill-rule:nonzero;stroke:none"
                 id="path52"
                 inkscape:connector-curvature="0" /></g></g><g
             id="g54"><g
               id="g56"><path
                 d="m 242.925,54.225 h 33.75 c 0,0 0,0 0,0 v 33.75 c 0,0 0,0 0,0 h -33.75 c 0,0 0,0 0,0 v -33.75 c 0,0 0,0 0,0 z"
                 style="fill:#000000;fill-opacity:1;fill-rule:nonzero;stroke:none"
                 id="path58"
                 inkscape:connector-curvature="0" /></g></g><g
             id="g60"><g
               id="g62"><path
                 d="m 259.8,59.85 h 5.625 v 5.625 H 259.8 Z m 5.625,0 h 5.625 v 5.625 h -5.625 z m -5.625,5.625 h 5.625 V 71.1 H 259.8 Z m 5.625,0 h 5.625 V 71.1 h -5.625 z M 259.8,71.1 h 5.625 v 5.625 H 259.8 Z m -11.25,5.625 h 5.625 v 5.625 h -5.625 z m 5.625,0 h 5.625 v 5.625 h -5.625 z m 11.25,0 h 5.625 v 5.625 h -5.625 z"
                 style="fill:#ffffff;fill-opacity:1;fill-rule:nonzero;stroke:none"
                 id="path64"
                 inkscape:connector-curvature="0" /></g></g><g
             id="g66"><g
               id="g68"><path
                 d="m 282.3,48.6 h 45 c 0,0 0,0 0,0 v 45 c 0,0 0,0 0,0 h -45 c 0,0 0,0 0,0 v -45 c 0,0 0,0 0,0 z"
                 style="fill:#000000;fill-opacity:1;fill-rule:nonzero;stroke:none"
                 id="path70"
                 inkscape:connector-curvature="0" /></g></g><g
             id="g72"><g
               id="g74"><path
                 d="m 332.925,54.225 h 33.75 c 0,0 0,0 0,0 v 33.75 c 0,0 0,0 0,0 h -33.75 c 0,0 0,0 0,0 v -33.75 c 0,0 0,0 0,0 z"
                 style="fill:#000000;fill-opacity:1;fill-rule:nonzero;stroke:none"
                 id="path76"
                 inkscape:connector-curvature="0" /></g></g><g
             id="g78"><g
               id="g80"><path
                 d="m 338.55,59.85 h 5.625 v 5.625 h -5.625 z m 16.875,0 h 5.625 v 5.625 h -5.625 z m -16.875,5.625 h 5.625 V 71.1 h -5.625 z m 16.875,0 h 5.625 V 71.1 h -5.625 z m -11.25,5.625 h 5.625 v 5.625 h -5.625 z m 0,5.625 h 5.625 v 5.625 h -5.625 z m 5.625,0 h 5.625 V 82.35 H 349.8 Z"
                 style="fill:#ffffff;fill-opacity:1;fill-rule:nonzero;stroke:none"
                 id="path82"
                 inkscape:connector-curvature="0" /></g></g><g
             id="g84"><g
               id="g86"><path
                 d="m 372.3,48.6 h 45 c 0,0 0,0 0,0 v 45 c 0,0 0,0 0,0 h -45 c 0,0 0,0 0,0 v -45 c 0,0 0,0 0,0 z"
                 style="fill:#000000;fill-opacity:1;fill-rule:nonzero;stroke:none"
                 id="path88"
                 inkscape:connector-curvature="0" /></g></g><g
             id="g90"><g
               id="g92"><path
                 d="m 422.925,54.225 h 33.75 c 0,0 0,0 0,0 v 33.75 c 0,0 0,0 0,0 h -33.75 c 0,0 0,0 0,0 v -33.75 c 0,0 0,0 0,0 z"
                 style="fill:#000000;fill-opacity:1;fill-rule:nonzero;stroke:none"
                 id="path94"
                 inkscape:connector-curvature="0" /></g></g><g
             id="g96"><g
               id="g98"><path
                 d="m 434.175,59.85 h 5.625 v 5.625 h -5.625 z m 11.25,0 h 5.625 v 5.625 h -5.625 z m -11.25,5.625 H 439.8 V 71.1 h -5.625 z M 428.55,71.1 h 5.625 v 5.625 h -5.625 z m 16.875,0 h 5.625 v 5.625 h -5.625 z m -16.875,5.625 h 5.625 v 5.625 h -5.625 z m 5.625,0 h 5.625 v 5.625 h -5.625 z m 5.625,0 h 5.625 V 82.35 H 439.8 Z"
                 style="fill:#ffffff;fill-opacity:1;fill-rule:nonzero;stroke:none"
                 id="path100"
                 inkscape:connector-curvature="0" /></g></g><g
             id="g102"><g
               id="g104"><path
                 d="m 462.3,48.6 h 45 c 0,0 0,0 0,0 v 45 c 0,0 0,0 0,0 h -45 c 0,0 0,0 0,0 v -45 c 0,0 0,0 0,0 z"
                 style="fill:#000000;fill-opacity:1;fill-rule:nonzero;stroke:none"
                 id="path106"
                 inkscape:connector-curvature="0" /></g></g><g
             id="g108"><g
               id="g110"><path
                 d="m 512.925,54.225 h 33.75 c 0,0 0,0 0,0 v 33.75 c 0,0 0,0 0,0 h -33.75 c 0,0 0,0 0,0 v -33.75 c 0,0 0,0 0,0 z"
                 style="fill:#000000;fill-opacity:1;fill-rule:nonzero;stroke:none"
                 id="path112"
                 inkscape:connector-curvature="0" /></g></g><g
             id="g114"><g
               id="g116"><path
                 d="m 524.175,59.85 h 5.625 v 5.625 h -5.625 z m 5.625,0 h 5.625 v 5.625 H 529.8 Z m 5.625,0 h 5.625 v 5.625 h -5.625 z m -16.875,5.625 h 5.625 V 71.1 h -5.625 z m 16.875,0 h 5.625 V 71.1 h -5.625 z M 518.55,71.1 h 5.625 v 5.625 h -5.625 z m 5.625,0 h 5.625 v 5.625 h -5.625 z m -5.625,5.625 h 5.625 v 5.625 h -5.625 z m 5.625,0 h 5.625 v 5.625 h -5.625 z m 11.25,0 h 5.625 v 5.625 h -5.625 z"
                 style="fill:#ffffff;fill-opacity:1;fill-rule:nonzero;stroke:none"
                 id="path118"
                 inkscape:connector-curvature="0" /></g></g><g
             id="g120"><g
               id="g122"><path
                 d="m 57.3,93.6 h 45 c 0,0 0,0 0,0 v 45 c 0,0 0,0 0,0 h -45 c 0,0 0,0 0,0 v -45 c 0,0 0,0 0,0 z"
                 style="fill:#000000;fill-opacity:1;fill-rule:nonzero;stroke:none"
                 id="path124"
                 inkscape:connector-curvature="0" /></g></g><g
             id="g126"><g
               id="g128"><path
                 d="m 107.925,99.225 h 33.75 c 0,0 0,0 0,0 v 33.75 c 0,0 0,0 0,0 h -33.75 c 0,0 0,0 0,0 v -33.75 c 0,0 0,0 0,0 z"
                 style="fill:#000000;fill-opacity:1;fill-rule:nonzero;stroke:none"
                 id="path130"
                 inkscape:connector-curvature="0" /></g></g><g
             id="g132"><g
               id="g134"><path
                 d="m 113.55,104.85 h 5.625 v 5.625 h -5.625 z m 16.875,0 h 5.625 v 5.625 h -5.625 z m -16.875,5.625 h 5.625 v 5.625 h -5.625 z m 5.625,0 h 5.625 v 5.625 h -5.625 z m 5.625,0 h 5.625 V 116.1 H 124.8 Z m 0,5.625 h 5.625 v 5.625 H 124.8 Z m -11.25,5.625 h 5.625 v 5.625 h -5.625 z m 5.625,0 h 5.625 v 5.625 h -5.625 z m 5.625,0 h 5.625 v 5.625 H 124.8 Z"
                 style="fill:#ffffff;fill-opacity:1;fill-rule:nonzero;stroke:none"
                 id="path136"
                 inkscape:connector-curvature="0" /></g></g><g
             id="g138"><g
               id="g140"><path
                 d="m 147.3,93.6 h 45 c 0,0 0,0 0,0 v 45 c 0,0 0,0 0,0 h -45 c 0,0 0,0 0,0 v -45 c 0,0 0,0 0,0 z"
                 style="fill:#000000;fill-opacity:1;fill-rule:nonzero;stroke:none"
                 id="path142"
                 inkscape:connector-curvature="0" /></g></g><g
             id="g144"><g
               id="g146"><path
                 d="m 197.925,99.225 h 33.75 c 0,0 0,0 0,0 v 33.75 c 0,0 0,0 0,0 h -33.75 c 0,0 0,0 0,0 v -33.75 c 0,0 0,0 0,0 z"
                 style="fill:#000000;fill-opacity:1;fill-rule:nonzero;stroke:none"
                 id="path148"
                 inkscape:connector-curvature="0" /></g></g><g
             id="g150"><g
               id="g152"><path
                 d="m 203.55,104.85 h 5.625 v 5.625 h -5.625 z m 5.625,0 h 5.625 v 5.625 h -5.625 z m 0,5.625 h 5.625 v 5.625 h -5.625 z m -5.625,5.625 h 5.625 v 5.625 h -5.625 z m 5.625,0 h 5.625 v 5.625 h -5.625 z m 5.625,0 h 5.625 v 5.625 H 214.8 Z m 5.625,0 h 5.625 v 5.625 h -5.625 z m -5.625,5.625 h 5.625 v 5.625 H 214.8 Z"
                 style="fill:#ffffff;fill-opacity:1;fill-rule:nonzero;stroke:none"
                 id="path154"
                 inkscape:connector-curvature="0" /></g></g><g
             id="g156"><g
               id="g158"><path
                 d="m 237.3,93.6 h 45 c 0,0 0,0 0,0 v 45 c 0,0 0,0 0,0 h -45 c 0,0 0,0 0,0 v -45 c 0,0 0,0 0,0 z"
                 style="fill:#000000;fill-opacity:1;fill-rule:nonzero;stroke:none"
                 id="path160"
                 inkscape:connector-curvature="0" /></g></g><g
             id="g162"><g
               id="g164"><path
                 d="m 287.925,99.225 h 33.75 c 0,0 0,0 0,0 v 33.75 c 0,0 0,0 0,0 h -33.75 c 0,0 0,0 0,0 v -33.75 c 0,0 0,0 0,0 z"
                 style="fill:#000000;fill-opacity:1;fill-rule:nonzero;stroke:none"
                 id="path166"
                 inkscape:connector-curvature="0" /></g></g><g
             id="g168"><g
               id="g170"><path
                 d="m 293.55,104.85 h 5.625 v 5.625 h -5.625 z m 5.625,0 h 5.625 v 5.625 h -5.625 z m 5.625,0 h 5.625 v 5.625 H 304.8 Z m 5.625,0 h 5.625 v 5.625 h -5.625 z m -16.875,5.625 h 5.625 v 5.625 h -5.625 z m 5.625,0 h 5.625 v 5.625 h -5.625 z m 5.625,0 h 5.625 V 116.1 H 304.8 Z m -11.25,5.625 h 5.625 v 5.625 h -5.625 z m 5.625,0 h 5.625 v 5.625 h -5.625 z m 11.25,0 h 5.625 v 5.625 h -5.625 z m -16.875,5.625 h 5.625 v 5.625 h -5.625 z m 11.25,0 h 5.625 v 5.625 H 304.8 Z"
                 style="fill:#ffffff;fill-opacity:1;fill-rule:nonzero;stroke:none"
                 id="path172"
                 inkscape:connector-curvature="0" /></g></g><g
             id="g174"><g
               id="g176"><path
                 d="m 327.3,93.6 h 45 c 0,0 0,0 0,0 v 45 c 0,0 0,0 0,0 h -45 c 0,0 0,0 0,0 v -45 c 0,0 0,0 0,0 z"
                 style="fill:#000000;fill-opacity:1;fill-rule:nonzero;stroke:none"
                 id="path178"
                 inkscape:connector-curvature="0" /></g></g><g
             id="g180"><g
               id="g182"><path
                 d="m 377.925,99.225 h 33.75 c 0,0 0,0 0,0 v 33.75 c 0,0 0,0 0,0 h -33.75 c 0,0 0,0 0,0 v -33.75 c 0,0 0,0 0,0 z"
                 style="fill:#000000;fill-opacity:1;fill-rule:nonzero;stroke:none"
                 id="path184"
                 inkscape:connector-curvature="0" /></g></g><g
             id="g186"><g
               id="g188"><path
                 d="m 383.55,104.85 h 5.625 v 5.625 h -5.625 z m 5.625,0 h 5.625 v 5.625 h -5.625 z m -5.625,5.625 h 5.625 v 5.625 h -5.625 z m 5.625,0 h 5.625 v 5.625 h -5.625 z m 5.625,0 h 5.625 V 116.1 H 394.8 Z m 5.625,0 h 5.625 v 5.625 h -5.625 z m -11.25,5.625 h 5.625 v 5.625 h -5.625 z m 11.25,0 h 5.625 v 5.625 h -5.625 z m -11.25,5.625 h 5.625 v 5.625 h -5.625 z m 5.625,0 h 5.625 v 5.625 H 394.8 Z"
                 style="fill:#ffffff;fill-opacity:1;fill-rule:nonzero;stroke:none"
                 id="path190"
                 inkscape:connector-curvature="0" /></g></g><g
             id="g192"><g
               id="g194"><path
                 d="m 417.3,93.6 h 45 c 0,0 0,0 0,0 v 45 c 0,0 0,0 0,0 h -45 c 0,0 0,0 0,0 v -45 c 0,0 0,0 0,0 z"
                 style="fill:#000000;fill-opacity:1;fill-rule:nonzero;stroke:none"
                 id="path196"
                 inkscape:connector-curvature="0" /></g></g><g
             id="g198"><g
               id="g200"><path
                 d="m 467.925,99.225 h 33.75 c 0,0 0,0 0,0 v 33.75 c 0,0 0,0 0,0 h -33.75 c 0,0 0,0 0,0 v -33.75 c 0,0 0,0 0,0 z"
                 style="fill:#000000;fill-opacity:1;fill-rule:nonzero;stroke:none"
                 id="path202"
                 inkscape:connector-curvature="0" /></g></g><g
             id="g204"><g
               id="g206"><path
                 d="m 473.55,104.85 h 5.625 v 5.625 h -5.625 z m 5.625,0 h 5.625 v 5.625 h -5.625 z m 5.625,0 h 5.625 v 5.625 H 484.8 Z m 5.625,0 h 5.625 v 5.625 h -5.625 z m -16.875,5.625 h 5.625 v 5.625 h -5.625 z m 16.875,0 h 5.625 v 5.625 h -5.625 z M 473.55,116.1 h 5.625 v 5.625 h -5.625 z m 16.875,0 h 5.625 v 5.625 h -5.625 z m 0,5.625 h 5.625 v 5.625 h -5.625 z"
                 style="fill:#ffffff;fill-opacity:1;fill-rule:nonzero;stroke:none"
                 id="path208"
                 inkscape:connector-curvature="0" /></g></g><g
             id="g210"><g
               id="g212"><path
                 d="m 507.3,93.6 h 45 c 0,0 0,0 0,0 v 45 c 0,0 0,0 0,0 h -45 c 0,0 0,0 0,0 v -45 c 0,0 0,0 0,0 z"
                 style="fill:#000000;fill-opacity:1;fill-rule:nonzero;stroke:none"
                 id="path214"
                 inkscape:connector-curvature="0" /></g></g><g
             id="g216"><g
               id="g218"><path
                 d="m 62.925,144.225 h 33.75 c 0,0 0,0 0,0 v 33.75 c 0,0 0,0 0,0 h -33.75 c 0,0 0,0 0,0 v -33.75 c 0,0 0,0 0,0 z"
                 style="fill:#000000;fill-opacity:1;fill-rule:nonzero;stroke:none"
                 id="path220"
                 inkscape:connector-curvature="0" /></g></g><g
             id="g222"><g
               id="g224"><path
                 d="m 85.425,149.85 h 5.625 v 5.625 h -5.625 z m 0,5.625 H 91.05 V 161.1 H 85.425 Z M 68.55,161.1 h 5.625 v 5.625 H 68.55 Z m 11.25,0 h 5.625 v 5.625 H 79.8 Z m -5.625,5.625 H 79.8 v 5.625 h -5.625 z m 5.625,0 h 5.625 v 5.625 H 79.8 Z m 5.625,0 h 5.625 v 5.625 h -5.625 z"
                 style="fill:#ffffff;fill-opacity:1;fill-rule:nonzero;stroke:none"
                 id="path226"
                 inkscape:connector-curvature="0" /></g></g><g
             id="g228"><g
               id="g230"><path
                 d="m 102.3,138.6 h 45 c 0,0 0,0 0,0 v 45 c 0,0 0,0 0,0 h -45 c 0,0 0,0 0,0 v -45 c 0,0 0,0 0,0 z"
                 style="fill:#000000;fill-opacity:1;fill-rule:nonzero;stroke:none"
                 id="path232"
                 inkscape:connector-curvature="0" /></g></g><g
             id="g234"><g
               id="g236"><path
                 d="m 152.925,144.225 h 33.75 c 0,0 0,0 0,0 v 33.75 c 0,0 0,0 0,0 h -33.75 c 0,0 0,0 0,0 v -33.75 c 0,0 0,0 0,0 z"
                 style="fill:#000000;fill-opacity:1;fill-rule:nonzero;stroke:none"
                 id="path238"
                 inkscape:connector-curvature="0" /></g></g><g
             id="g240"><g
               id="g242"><path
                 d="m 158.55,155.475 h 5.625 v 5.625 h -5.625 z m 5.625,0 h 5.625 v 5.625 h -5.625 z m 5.625,0 h 5.625 V 161.1 H 169.8 Z m -11.25,5.625 h 5.625 v 5.625 h -5.625 z m 11.25,0 h 5.625 v 5.625 H 169.8 Z m 5.625,0 h 5.625 v 5.625 h -5.625 z m -11.25,5.625 h 5.625 v 5.625 h -5.625 z m 5.625,0 h 5.625 v 5.625 H 169.8 Z m 5.625,0 h 5.625 v 5.625 h -5.625 z"
                 style="fill:#ffffff;fill-opacity:1;fill-rule:nonzero;stroke:none"
                 id="path244"
                 inkscape:connector-curvature="0" /></g></g><g
             id="g246"><g
               id="g248"><path
                 d="m 192.3,138.6 h 45 c 0,0 0,0 0,0 v 45 c 0,0 0,0 0,0 h -45 c 0,0 0,0 0,0 v -45 c 0,0 0,0 0,0 z"
                 style="fill:#000000;fill-opacity:1;fill-rule:nonzero;stroke:none"
                 id="path250"
                 inkscape:connector-curvature="0" /></g></g><g
             id="g252"><g
               id="g254"><path
                 d="m 242.925,144.225 h 33.75 c 0,0 0,0 0,0 v 33.75 c 0,0 0,0 0,0 h -33.75 c 0,0 0,0 0,0 v -33.75 c 0,0 0,0 0,0 z"
                 style="fill:#000000;fill-opacity:1;fill-rule:nonzero;stroke:none"
                 id="path256"
                 inkscape:connector-curvature="0" /></g></g><g
             id="g258"><g
               id="g260"><path
                 d="m 259.8,149.85 h 5.625 v 5.625 H 259.8 Z m -11.25,5.625 h 5.625 v 5.625 h -5.625 z m 11.25,0 h 5.625 V 161.1 H 259.8 Z m -11.25,11.25 h 5.625 v 5.625 h -5.625 z m 5.625,0 h 5.625 v 5.625 h -5.625 z m 5.625,0 h 5.625 v 5.625 H 259.8 Z m 5.625,0 h 5.625 v 5.625 h -5.625 z"
                 style="fill:#ffffff;fill-opacity:1;fill-rule:nonzero;stroke:none"
                 id="path262"
                 inkscape:connector-curvature="0" /></g></g><g
             id="g264"><g
               id="g266"><path
                 d="m 282.3,138.6 h 45 c 0,0 0,0 0,0 v 45 c 0,0 0,0 0,0 h -45 c 0,0 0,0 0,0 v -45 c 0,0 0,0 0,0 z"
                 style="fill:#000000;fill-opacity:1;fill-rule:nonzero;stroke:none"
                 id="path268"
                 inkscape:connector-curvature="0" /></g></g><g
             id="g270"><g
               id="g272"><path
                 d="m 332.925,144.225 h 33.75 c 0,0 0,0 0,0 v 33.75 c 0,0 0,0 0,0 h -33.75 c 0,0 0,0 0,0 v -33.75 c 0,0 0,0 0,0 z"
                 style="fill:#000000;fill-opacity:1;fill-rule:nonzero;stroke:none"
                 id="path274"
                 inkscape:connector-curvature="0" /></g></g><g
             id="g276"><g
               id="g278"><path
                 d="m 349.8,149.85 h 5.625 v 5.625 H 349.8 Z m -5.625,5.625 h 5.625 v 5.625 h -5.625 z m -5.625,5.625 h 5.625 v 5.625 h -5.625 z m 11.25,0 h 5.625 v 5.625 H 349.8 Z m 5.625,0 h 5.625 v 5.625 h -5.625 z m 0,5.625 h 5.625 v 5.625 h -5.625 z"
                 style="fill:#ffffff;fill-opacity:1;fill-rule:nonzero;stroke:none"
                 id="path280"
                 inkscape:connector-curvature="0" /></g></g><g
             id="g282"><g
               id="g284"><path
                 d="m 372.3,138.6 h 45 c 0,0 0,0 0,0 v 45 c 0,0 0,0 0,0 h -45 c 0,0 0,0 0,0 v -45 c 0,0 0,0 0,0 z"
                 style="fill:#000000;fill-opacity:1;fill-rule:nonzero;stroke:none"
                 id="path286"
                 inkscape:connector-curvature="0" /></g></g><g
             id="g288"><g
               id="g290"><path
                 d="m 422.925,144.225 h 33.75 c 0,0 0,0 0,0 v 33.75 c 0,0 0,0 0,0 h -33.75 c 0,0 0,0 0,0 v -33.75 c 0,0 0,0 0,0 z"
                 style="fill:#000000;fill-opacity:1;fill-rule:nonzero;stroke:none"
                 id="path292"
                 inkscape:connector-curvature="0" /></g></g><g
             id="g294"><g
               id="g296"><path
                 d="m 439.8,149.85 h 5.625 v 5.625 H 439.8 Z m -5.625,5.625 h 5.625 v 5.625 h -5.625 z m 5.625,0 h 5.625 V 161.1 H 439.8 Z m 0,5.625 h 5.625 v 5.625 H 439.8 Z m 5.625,0 h 5.625 v 5.625 h -5.625 z m -16.875,5.625 h 5.625 v 5.625 h -5.625 z m 5.625,0 h 5.625 v 5.625 h -5.625 z m 5.625,0 h 5.625 v 5.625 H 439.8 Z"
                 style="fill:#ffffff;fill-opacity:1;fill-rule:nonzero;stroke:none"
                 id="path298"
                 inkscape:connector-curvature="0" /></g></g><g
             id="g300"><g
               id="g302"><path
                 d="m 462.3,138.6 h 45 c 0,0 0,0 0,0 v 45 c 0,0 0,0 0,0 h -45 c 0,0 0,0 0,0 v -45 c 0,0 0,0 0,0 z"
                 style="fill:#000000;fill-opacity:1;fill-rule:nonzero;stroke:none"
                 id="path304"
                 inkscape:connector-curvature="0" /></g></g><g
             id="g306"><g
               id="g308"><path
                 d="m 512.925,144.225 h 33.75 c 0,0 0,0 0,0 v 33.75 c 0,0 0,0 0,0 h -33.75 c 0,0 0,0 0,0 v -33.75 c 0,0 0,0 0,0 z"
                 style="fill:#000000;fill-opacity:1;fill-rule:nonzero;stroke:none"
                 id="path310"
                 inkscape:connector-curvature="0" /></g></g><g
             id="g312"><g
               id="g314"><path
                 d="m 524.175,149.85 h 5.625 v 5.625 h -5.625 z m 0,5.625 h 5.625 v 5.625 h -5.625 z m 5.625,0 h 5.625 V 161.1 H 529.8 Z m -5.625,5.625 h 5.625 v 5.625 h -5.625 z m 5.625,0 h 5.625 v 5.625 H 529.8 Z m -5.625,5.625 h 5.625 v 5.625 h -5.625 z m 11.25,0 h 5.625 v 5.625 h -5.625 z"
                 style="fill:#ffffff;fill-opacity:1;fill-rule:nonzero;stroke:none"
                 id="path316"
                 inkscape:connector-curvature="0" /></g></g><g
             id="g318"><g
               id="g320"><path
                 d="m 57.3,183.6 h 45 c 0,0 0,0 0,0 v 45 c 0,0 0,0 0,0 h -45 c 0,0 0,0 0,0 v -45 c 0,0 0,0 0,0 z"
                 style="fill:#000000;fill-opacity:1;fill-rule:nonzero;stroke:none"
                 id="path322"
                 inkscape:connector-curvature="0" /></g></g><g
             id="g324"><g
               id="g326"><path
                 d="m 107.925,189.225 h 33.75 c 0,0 0,0 0,0 v 33.75 c 0,0 0,0 0,0 h -33.75 c 0,0 0,0 0,0 v -33.75 c 0,0 0,0 0,0 z"
                 style="fill:#000000;fill-opacity:1;fill-rule:nonzero;stroke:none"
                 id="path328"
                 inkscape:connector-curvature="0" /></g></g><g
             id="g330"><g
               id="g332"><path
                 d="m 119.175,194.85 h 5.625 v 5.625 h -5.625 z m 5.625,0 h 5.625 v 5.625 H 124.8 Z m -5.625,5.625 h 5.625 v 5.625 h -5.625 z m 5.625,0 h 5.625 V 206.1 H 124.8 Z"
                 style="fill:#ffffff;fill-opacity:1;fill-rule:nonzero;stroke:none"
                 id="path334"
                 inkscape:connector-curvature="0" /></g></g><g
             id="g336"><g
               id="g338"><path
                 d="m 147.3,183.6 h 45 c 0,0 0,0 0,0 v 45 c 0,0 0,0 0,0 h -45 c 0,0 0,0 0,0 v -45 c 0,0 0,0 0,0 z"
                 style="fill:#000000;fill-opacity:1;fill-rule:nonzero;stroke:none"
                 id="path340"
                 inkscape:connector-curvature="0" /></g></g><g
             id="g342"><g
               id="g344"><path
                 d="m 197.925,189.225 h 33.75 c 0,0 0,0 0,0 v 33.75 c 0,0 0,0 0,0 h -33.75 c 0,0 0,0 0,0 v -33.75 c 0,0 0,0 0,0 z"
                 style="fill:#000000;fill-opacity:1;fill-rule:nonzero;stroke:none"
                 id="path346"
                 inkscape:connector-curvature="0" /></g></g><g
             id="g348"><g
               id="g350"><path
                 d="m 209.175,194.85 h 5.625 v 5.625 h -5.625 z m 5.625,0 h 5.625 v 5.625 H 214.8 Z m -11.25,5.625 h 5.625 v 5.625 h -5.625 z m 5.625,0 h 5.625 v 5.625 h -5.625 z m 0,5.625 h 5.625 v 5.625 h -5.625 z m 11.25,0 h 5.625 v 5.625 h -5.625 z m -16.875,5.625 h 5.625 v 5.625 h -5.625 z m 5.625,0 h 5.625 v 5.625 h -5.625 z m 5.625,0 h 5.625 v 5.625 H 214.8 Z"
                 style="fill:#ffffff;fill-opacity:1;fill-rule:nonzero;stroke:none"
                 id="path352"
                 inkscape:connector-curvature="0" /></g></g><g
             id="g354"><g
               id="g356"><path
                 d="m 237.3,183.6 h 45 c 0,0 0,0 0,0 v 45 c 0,0 0,0 0,0 h -45 c 0,0 0,0 0,0 v -45 c 0,0 0,0 0,0 z"
                 style="fill:#000000;fill-opacity:1;fill-rule:nonzero;stroke:none"
                 id="path358"
                 inkscape:connector-curvature="0" /></g></g><g
             id="g360"><g
               id="g362"><path
                 d="m 287.925,189.225 h 33.75 c 0,0 0,0 0,0 v 33.75 c 0,0 0,0 0,0 h -33.75 c 0,0 0,0 0,0 v -33.75 c 0,0 0,0 0,0 z"
                 style="fill:#000000;fill-opacity:1;fill-rule:nonzero;stroke:none"
                 id="path364"
                 inkscape:connector-curvature="0" /></g></g><g
             id="g366"><g
               id="g368"><path
                 d="m 299.175,194.85 h 5.625 v 5.625 h -5.625 z m 5.625,0 h 5.625 v 5.625 H 304.8 Z m 5.625,0 h 5.625 v 5.625 h -5.625 z m -11.25,5.625 h 5.625 v 5.625 h -5.625 z m 5.625,0 h 5.625 V 206.1 H 304.8 Z m -11.25,5.625 h 5.625 v 5.625 h -5.625 z m 11.25,0 h 5.625 v 5.625 H 304.8 Z m -11.25,5.625 h 5.625 v 5.625 h -5.625 z m 5.625,0 h 5.625 v 5.625 h -5.625 z m 5.625,0 h 5.625 v 5.625 H 304.8 Z m 5.625,0 h 5.625 v 5.625 h -5.625 z"
                 style="fill:#ffffff;fill-opacity:1;fill-rule:nonzero;stroke:none"
                 id="path370"
                 inkscape:connector-curvature="0" /></g></g><g
             id="g372"><g
               id="g374"><path
                 d="m 327.3,183.6 h 45 c 0,0 0,0 0,0 v 45 c 0,0 0,0 0,0 h -45 c 0,0 0,0 0,0 v -45 c 0,0 0,0 0,0 z"
                 style="fill:#000000;fill-opacity:1;fill-rule:nonzero;stroke:none"
                 id="path376"
                 inkscape:connector-curvature="0" /></g></g><g
             id="g378"><g
               id="g380"><path
                 d="m 377.925,189.225 h 33.75 c 0,0 0,0 0,0 v 33.75 c 0,0 0,0 0,0 h -33.75 c 0,0 0,0 0,0 v -33.75 c 0,0 0,0 0,0 z"
                 style="fill:#000000;fill-opacity:1;fill-rule:nonzero;stroke:none"
                 id="path382"
                 inkscape:connector-curvature="0" /></g></g><g
             id="g384"><g
               id="g386"><path
                 d="m 383.55,194.85 h 5.625 v 5.625 h -5.625 z m 5.625,5.625 h 5.625 v 5.625 h -5.625 z m 5.625,0 h 5.625 V 206.1 H 394.8 Z m -11.25,5.625 h 5.625 v 5.625 h -5.625 z m 0,5.625 h 5.625 v 5.625 h -5.625 z m 11.25,0 h 5.625 v 5.625 H 394.8 Z m 5.625,0 h 5.625 v 5.625 h -5.625 z"
                 style="fill:#ffffff;fill-opacity:1;fill-rule:nonzero;stroke:none"
                 id="path388"
                 inkscape:connector-curvature="0" /></g></g><g
             id="g390"><g
               id="g392"><path
                 d="m 417.3,183.6 h 45 c 0,0 0,0 0,0 v 45 c 0,0 0,0 0,0 h -45 c 0,0 0,0 0,0 v -45 c 0,0 0,0 0,0 z"
                 style="fill:#000000;fill-opacity:1;fill-rule:nonzero;stroke:none"
                 id="path394"
                 inkscape:connector-curvature="0" /></g></g><g
             id="g396"><g
               id="g398"><path
                 d="m 467.925,189.225 h 33.75 c 0,0 0,0 0,0 v 33.75 c 0,0 0,0 0,0 h -33.75 c 0,0 0,0 0,0 v -33.75 c 0,0 0,0 0,0 z"
                 style="fill:#000000;fill-opacity:1;fill-rule:nonzero;stroke:none"
                 id="path400"
                 inkscape:connector-curvature="0" /></g></g><g
             id="g402"><g
               id="g404"><path
                 d="m 473.55,194.85 h 5.625 v 5.625 h -5.625 z m 11.25,0 h 5.625 v 5.625 H 484.8 Z m 5.625,0 h 5.625 v 5.625 h -5.625 z M 484.8,206.1 h 5.625 v 5.625 H 484.8 Z m -11.25,5.625 h 5.625 v 5.625 h -5.625 z m 11.25,0 h 5.625 v 5.625 H 484.8 Z m 5.625,0 h 5.625 v 5.625 h -5.625 z"
                 style="fill:#ffffff;fill-opacity:1;fill-rule:nonzero;stroke:none"
                 id="path406"
                 inkscape:connector-curvature="0" /></g></g><g
             id="g408"><g
               id="g410"><path
                 d="m 507.3,183.6 h 45 c 0,0 0,0 0,0 v 45 c 0,0 0,0 0,0 h -45 c 0,0 0,0 0,0 v -45 c 0,0 0,0 0,0 z"
                 style="fill:#000000;fill-opacity:1;fill-rule:nonzero;stroke:none"
                 id="path412"
                 inkscape:connector-curvature="0" /></g></g><g
             id="g414"><g
               id="g416"><path
                 d="m 62.925,234.225 h 33.75 c 0,0 0,0 0,0 v 33.75 c 0,0 0,0 0,0 h -33.75 c 0,0 0,0 0,0 v -33.75 c 0,0 0,0 0,0 z"
                 style="fill:#000000;fill-opacity:1;fill-rule:nonzero;stroke:none"
                 id="path418"
                 inkscape:connector-curvature="0" /></g></g><g
             id="g420"><g
               id="g422"><path
                 d="m 68.55,239.85 h 5.625 v 5.625 H 68.55 Z m 5.625,0 H 79.8 v 5.625 h -5.625 z m -5.625,5.625 h 5.625 V 251.1 H 68.55 Z m 5.625,0 H 79.8 V 251.1 H 74.175 Z M 68.55,251.1 h 5.625 v 5.625 H 68.55 Z m 5.625,0 H 79.8 v 5.625 h -5.625 z m 11.25,0 h 5.625 v 5.625 h -5.625 z m -11.25,5.625 H 79.8 v 5.625 h -5.625 z m 11.25,0 h 5.625 v 5.625 h -5.625 z"
                 style="fill:#ffffff;fill-opacity:1;fill-rule:nonzero;stroke:none"
                 id="path424"
                 inkscape:connector-curvature="0" /></g></g><g
             id="g426"><g
               id="g428"><path
                 d="m 102.3,228.6 h 45 c 0,0 0,0 0,0 v 45 c 0,0 0,0 0,0 h -45 c 0,0 0,0 0,0 v -45 c 0,0 0,0 0,0 z"
                 style="fill:#000000;fill-opacity:1;fill-rule:nonzero;stroke:none"
                 id="path430"
                 inkscape:connector-curvature="0" /></g></g><g
             id="g432"><g
               id="g434"><path
                 d="m 152.925,234.225 h 33.75 c 0,0 0,0 0,0 v 33.75 c 0,0 0,0 0,0 h -33.75 c 0,0 0,0 0,0 v -33.75 c 0,0 0,0 0,0 z"
                 style="fill:#000000;fill-opacity:1;fill-rule:nonzero;stroke:none"
                 id="path436"
                 inkscape:connector-curvature="0" /></g></g><g
             id="g438"><g
               id="g440"><path
                 d="m 158.55,239.85 h 5.625 v 5.625 h -5.625 z m 5.625,0 h 5.625 v 5.625 h -5.625 z m 11.25,0 h 5.625 v 5.625 h -5.625 z m -16.875,5.625 h 5.625 v 5.625 h -5.625 z m 5.625,0 h 5.625 v 5.625 h -5.625 z m 11.25,0 h 5.625 v 5.625 h -5.625 z M 158.55,251.1 h 5.625 v 5.625 h -5.625 z m 11.25,5.625 h 5.625 v 5.625 H 169.8 Z"
                 style="fill:#ffffff;fill-opacity:1;fill-rule:nonzero;stroke:none"
                 id="path442"
                 inkscape:connector-curvature="0" /></g></g><g
             id="g444"><g
               id="g446"><path
                 d="m 192.3,228.6 h 45 c 0,0 0,0 0,0 v 45 c 0,0 0,0 0,0 h -45 c 0,0 0,0 0,0 v -45 c 0,0 0,0 0,0 z"
                 style="fill:#000000;fill-opacity:1;fill-rule:nonzero;stroke:none"
                 id="path448"
                 inkscape:connector-curvature="0" /></g></g><g
             id="g450"><g
               id="g452"><path
                 d="m 242.925,234.225 h 33.75 c 0,0 0,0 0,0 v 33.75 c 0,0 0,0 0,0 h -33.75 c 0,0 0,0 0,0 v -33.75 c 0,0 0,0 0,0 z"
                 style="fill:#000000;fill-opacity:1;fill-rule:nonzero;stroke:none"
                 id="path454"
                 inkscape:connector-curvature="0" /></g></g><g
             id="g456"><g
               id="g458"><path
                 d="m 248.55,239.85 h 5.625 v 5.625 h -5.625 z m 5.625,0 h 5.625 v 5.625 h -5.625 z m 5.625,0 h 5.625 v 5.625 H 259.8 Z m 5.625,0 h 5.625 v 5.625 h -5.625 z m -16.875,5.625 h 5.625 v 5.625 h -5.625 z m 5.625,0 h 5.625 v 5.625 h -5.625 z m 5.625,0 h 5.625 V 251.1 H 259.8 Z m -5.625,5.625 h 5.625 v 5.625 h -5.625 z m 0,5.625 h 5.625 v 5.625 h -5.625 z m 5.625,0 h 5.625 v 5.625 H 259.8 Z m 5.625,0 h 5.625 v 5.625 h -5.625 z"
                 style="fill:#ffffff;fill-opacity:1;fill-rule:nonzero;stroke:none"
                 id="path460"
                 inkscape:connector-curvature="0" /></g></g><g
             id="g462"><g
               id="g464"><path
                 d="m 282.3,228.6 h 45 c 0,0 0,0 0,0 v 45 c 0,0 0,0 0,0 h -45 c 0,0 0,0 0,0 v -45 c 0,0 0,0 0,0 z"
                 style="fill:#000000;fill-opacity:1;fill-rule:nonzero;stroke:none"
                 id="path466"
                 inkscape:connector-curvature="0" /></g></g><g
             id="g468"><g
               id="g470"><path
                 d="m 332.925,234.225 h 33.75 c 0,0 0,0 0,0 v 33.75 c 0,0 0,0 0,0 h -33.75 c 0,0 0,0 0,0 v -33.75 c 0,0 0,0 0,0 z"
                 style="fill:#000000;fill-opacity:1;fill-rule:nonzero;stroke:none"
                 id="path472"
                 inkscape:connector-curvature="0" /></g></g><g
             id="g474"><g
               id="g476"><path
                 d="m 338.55,239.85 h 5.625 v 5.625 h -5.625 z m 16.875,0 h 5.625 v 5.625 h -5.625 z m -11.25,5.625 h 5.625 v 5.625 h -5.625 z m 0,5.625 h 5.625 v 5.625 h -5.625 z m 5.625,0 h 5.625 v 5.625 H 349.8 Z m 5.625,0 h 5.625 v 5.625 h -5.625 z m 0,5.625 h 5.625 v 5.625 h -5.625 z"
                 style="fill:#ffffff;fill-opacity:1;fill-rule:nonzero;stroke:none"
                 id="path478"
                 inkscape:connector-curvature="0" /></g></g><g
             id="g480"><g
               id="g482"><path
                 d="m 372.3,228.6 h 45 c 0,0 0,0 0,0 v 45 c 0,0 0,0 0,0 h -45 c 0,0 0,0 0,0 v -45 c 0,0 0,0 0,0 z"
                 style="fill:#000000;fill-opacity:1;fill-rule:nonzero;stroke:none"
                 id="path484"
                 inkscape:connector-curvature="0" /></g></g><g
             id="g486"><g
               id="g488"><path
                 d="m 422.925,234.225 h 33.75 c 0,0 0,0 0,0 v 33.75 c 0,0 0,0 0,0 h -33.75 c 0,0 0,0 0,0 v -33.75 c 0,0 0,0 0,0 z"
                 style="fill:#000000;fill-opacity:1;fill-rule:nonzero;stroke:none"
                 id="path490"
                 inkscape:connector-curvature="0" /></g></g><g
             id="g492"><g
               id="g494"><path
                 d="m 428.55,239.85 h 5.625 v 5.625 h -5.625 z m 11.25,0 h 5.625 v 5.625 H 439.8 Z m -11.25,5.625 h 5.625 v 5.625 h -5.625 z m 5.625,0 h 5.625 v 5.625 h -5.625 z m -5.625,5.625 h 5.625 v 5.625 h -5.625 z m 5.625,0 h 5.625 v 5.625 h -5.625 z m 5.625,0 h 5.625 v 5.625 H 439.8 Z m -5.625,5.625 h 5.625 v 5.625 h -5.625 z"
                 style="fill:#ffffff;fill-opacity:1;fill-rule:nonzero;stroke:none"
                 id="path496"
                 inkscape:connector-curvature="0" /></g></g><g
             id="g498"><g
               id="g500"><path
                 d="m 462.3,228.6 h 45 c 0,0 0,0 0,0 v 45 c 0,0 0,0 0,0 h -45 c 0,0 0,0 0,0 v -45 c 0,0 0,0 0,0 z"
                 style="fill:#000000;fill-opacity:1;fill-rule:nonzero;stroke:none"
                 id="path502"
                 inkscape:connector-curvature="0" /></g></g><g
             id="g504"><g
               id="g506"><path
                 d="m 512.925,234.225 h 33.75 c 0,0 0,0 0,0 v 33.75 c 0,0 0,0 0,0 h -33.75 c 0,0 0,0 0,0 v -33.75 c 0,0 0,0 0,0 z"
                 style="fill:#000000;fill-opacity:1;fill-rule:nonzero;stroke:none"
                 id="path508"
                 inkscape:connector-curvature="0" /></g></g><g
             id="g510"><g
               id="g512"><path
                 d="m 518.55,239.85 h 5.625 v 5.625 h -5.625 z m 11.25,0 h 5.625 v 5.625 H 529.8 Z m -5.625,5.625 h 5.625 v 5.625 h -5.625 z m 11.25,0 h 5.625 v 5.625 h -5.625 z m -11.25,5.625 h 5.625 v 5.625 h -5.625 z m 11.25,0 h 5.625 v 5.625 h -5.625 z m -11.25,5.625 h 5.625 v 5.625 h -5.625 z"
                 style="fill:#ffffff;fill-opacity:1;fill-rule:nonzero;stroke:none"
                 id="path514"
                 inkscape:connector-curvature="0" /></g></g><g
             id="g516"><g
               id="g518"><path
                 d="m 57.3,273.6 h 45 c 0,0 0,0 0,0 v 45 c 0,0 0,0 0,0 h -45 c 0,0 0,0 0,0 v -45 c 0,0 0,0 0,0 z"
                 style="fill:#000000;fill-opacity:1;fill-rule:nonzero;stroke:none"
                 id="path520"
                 inkscape:connector-curvature="0" /></g></g><g
             id="g522"><g
               id="g524"><path
                 d="m 107.925,279.225 h 33.75 c 0,0 0,0 0,0 v 33.75 c 0,0 0,0 0,0 h -33.75 c 0,0 0,0 0,0 v -33.75 c 0,0 0,0 0,0 z"
                 style="fill:#000000;fill-opacity:1;fill-rule:nonzero;stroke:none"
                 id="path526"
                 inkscape:connector-curvature="0" /></g></g><g
             id="g528"><g
               id="g530"><path
                 d="m 124.8,284.85 h 5.625 v 5.625 H 124.8 Z m 5.625,5.625 h 5.625 v 5.625 h -5.625 z M 124.8,296.1 h 5.625 v 5.625 H 124.8 Z m 0,5.625 h 5.625 v 5.625 H 124.8 Z m 5.625,0 h 5.625 v 5.625 h -5.625 z"
                 style="fill:#ffffff;fill-opacity:1;fill-rule:nonzero;stroke:none"
                 id="path532"
                 inkscape:connector-curvature="0" /></g></g><g
             id="g534"><g
               id="g536"><path
                 d="m 147.3,273.6 h 45 c 0,0 0,0 0,0 v 45 c 0,0 0,0 0,0 h -45 c 0,0 0,0 0,0 v -45 c 0,0 0,0 0,0 z"
                 style="fill:#000000;fill-opacity:1;fill-rule:nonzero;stroke:none"
                 id="path538"
                 inkscape:connector-curvature="0" /></g></g><g
             id="g540"><g
               id="g542"><path
                 d="m 197.925,279.225 h 33.75 c 0,0 0,0 0,0 v 33.75 c 0,0 0,0 0,0 h -33.75 c 0,0 0,0 0,0 v -33.75 c 0,0 0,0 0,0 z"
                 style="fill:#000000;fill-opacity:1;fill-rule:nonzero;stroke:none"
                 id="path544"
                 inkscape:connector-curvature="0" /></g></g><g
             id="g546"><g
               id="g548"><path
                 d="m 214.8,284.85 h 5.625 v 5.625 H 214.8 Z m 5.625,0 h 5.625 v 5.625 h -5.625 z m -11.25,5.625 h 5.625 v 5.625 h -5.625 z m 0,5.625 h 5.625 v 5.625 h -5.625 z m 5.625,0 h 5.625 v 5.625 H 214.8 Z m -11.25,5.625 h 5.625 v 5.625 h -5.625 z m 5.625,0 h 5.625 v 5.625 h -5.625 z m 5.625,0 h 5.625 v 5.625 H 214.8 Z m 5.625,0 h 5.625 v 5.625 h -5.625 z"
                 style="fill:#ffffff;fill-opacity:1;fill-rule:nonzero;stroke:none"
                 id="path550"
                 inkscape:connector-curvature="0" /></g></g><g
             id="g552"><g
               id="g554"><path
                 d="m 237.3,273.6 h 45 c 0,0 0,0 0,0 v 45 c 0,0 0,0 0,0 h -45 c 0,0 0,0 0,0 v -45 c 0,0 0,0 0,0 z"
                 style="fill:#000000;fill-opacity:1;fill-rule:nonzero;stroke:none"
                 id="path556"
                 inkscape:connector-curvature="0" /></g></g><g
             id="g558"><g
               id="g560"><path
                 d="m 287.925,279.225 h 33.75 c 0,0 0,0 0,0 v 33.75 c 0,0 0,0 0,0 h -33.75 c 0,0 0,0 0,0 v -33.75 c 0,0 0,0 0,0 z"
                 style="fill:#000000;fill-opacity:1;fill-rule:nonzero;stroke:none"
                 id="path562"
                 inkscape:connector-curvature="0" /></g></g><g
             id="g564"><g
               id="g566"><path
                 d="m 299.175,284.85 h 5.625 v 5.625 h -5.625 z m 0,5.625 h 5.625 v 5.625 h -5.625 z m 11.25,5.625 h 5.625 v 5.625 h -5.625 z m -11.25,5.625 h 5.625 v 5.625 h -5.625 z m 11.25,0 h 5.625 v 5.625 h -5.625 z"
                 style="fill:#ffffff;fill-opacity:1;fill-rule:nonzero;stroke:none"
                 id="path568"
                 inkscape:connector-curvature="0" /></g></g><g
             id="g570"><g
               id="g572"><path
                 d="m 327.3,273.6 h 45 c 0,0 0,0 0,0 v 45 c 0,0 0,0 0,0 h -45 c 0,0 0,0 0,0 v -45 c 0,0 0,0 0,0 z"
                 style="fill:#000000;fill-opacity:1;fill-rule:nonzero;stroke:none"
                 id="path574"
                 inkscape:connector-curvature="0" /></g></g><g
             id="g576"><g
               id="g578"><path
                 d="m 377.925,279.225 h 33.75 c 0,0 0,0 0,0 v 33.75 c 0,0 0,0 0,0 h -33.75 c 0,0 0,0 0,0 v -33.75 c 0,0 0,0 0,0 z"
                 style="fill:#000000;fill-opacity:1;fill-rule:nonzero;stroke:none"
                 id="path580"
                 inkscape:connector-curvature="0" /></g></g><g
             id="g582"><g
               id="g584"><path
                 d="m 389.175,284.85 h 5.625 v 5.625 h -5.625 z m 11.25,0 h 5.625 v 5.625 h -5.625 z m -11.25,5.625 h 5.625 v 5.625 h -5.625 z m 5.625,0 h 5.625 V 296.1 H 394.8 Z m 5.625,0 h 5.625 v 5.625 h -5.625 z M 383.55,296.1 h 5.625 v 5.625 h -5.625 z m 11.25,0 h 5.625 v 5.625 H 394.8 Z m 5.625,0 h 5.625 v 5.625 h -5.625 z m -5.625,5.625 h 5.625 v 5.625 H 394.8 Z"
                 style="fill:#ffffff;fill-opacity:1;fill-rule:nonzero;stroke:none"
                 id="path586"
                 inkscape:connector-curvature="0" /></g></g><g
             id="g588"><g
               id="g590"><path
                 d="m 417.3,273.6 h 45 c 0,0 0,0 0,0 v 45 c 0,0 0,0 0,0 h -45 c 0,0 0,0 0,0 v -45 c 0,0 0,0 0,0 z"
                 style="fill:#000000;fill-opacity:1;fill-rule:nonzero;stroke:none"
                 id="path592"
                 inkscape:connector-curvature="0" /></g></g><g
             id="g594"><g
               id="g596"><path
                 d="m 467.925,279.225 h 33.75 c 0,0 0,0 0,0 v 33.75 c 0,0 0,0 0,0 h -33.75 c 0,0 0,0 0,0 v -33.75 c 0,0 0,0 0,0 z"
                 style="fill:#000000;fill-opacity:1;fill-rule:nonzero;stroke:none"
                 id="path598"
                 inkscape:connector-curvature="0" /></g></g><g
             id="g600"><g
               id="g602"><path
                 d="m 473.55,284.85 h 5.625 v 5.625 h -5.625 z m 16.875,0 h 5.625 v 5.625 h -5.625 z m -16.875,5.625 h 5.625 v 5.625 h -5.625 z m 5.625,0 h 5.625 v 5.625 h -5.625 z m 5.625,0 h 5.625 V 296.1 H 484.8 Z m -11.25,5.625 h 5.625 v 5.625 h -5.625 z m 5.625,0 h 5.625 v 5.625 h -5.625 z m -5.625,5.625 h 5.625 v 5.625 h -5.625 z m 5.625,0 h 5.625 v 5.625 h -5.625 z m 5.625,0 h 5.625 v 5.625 H 484.8 Z m 5.625,0 h 5.625 v 5.625 h -5.625 z"
                 style="fill:#ffffff;fill-opacity:1;fill-rule:nonzero;stroke:none"
                 id="path604"
                 inkscape:connector-curvature="0" /></g></g><g
             id="g606"><g
               id="g608"><path
                 d="m 507.3,273.6 h 45 c 0,0 0,0 0,0 v 45 c 0,0 0,0 0,0 h -45 c 0,0 0,0 0,0 v -45 c 0,0 0,0 0,0 z"
                 style="fill:#000000;fill-opacity:1;fill-rule:nonzero;stroke:none"
                 id="path610"
                 inkscape:connector-curvature="0" /></g></g><g
             id="g612"><g
               id="g614"><path
                 d="m 62.925,324.225 h 33.75 c 0,0 0,0 0,0 v 33.75 c 0,0 0,0 0,0 h -33.75 c 0,0 0,0 0,0 v -33.75 c 0,0 0,0 0,0 z"
                 style="fill:#000000;fill-opacity:1;fill-rule:nonzero;stroke:none"
                 id="path616"
                 inkscape:connector-curvature="0" /></g></g><g
             id="g618"><g
               id="g620"><path
                 d="m 68.55,329.85 h 5.625 v 5.625 H 68.55 Z m 5.625,0 H 79.8 v 5.625 h -5.625 z m 5.625,0 h 5.625 v 5.625 H 79.8 Z m 5.625,0 h 5.625 v 5.625 H 85.425 Z M 68.55,341.1 h 5.625 v 5.625 H 68.55 Z m 5.625,0 H 79.8 v 5.625 h -5.625 z m -5.625,5.625 h 5.625 v 5.625 H 68.55 Z m 11.25,0 h 5.625 v 5.625 H 79.8 Z m 5.625,0 h 5.625 v 5.625 h -5.625 z"
                 style="fill:#ffffff;fill-opacity:1;fill-rule:nonzero;stroke:none"
                 id="path622"
                 inkscape:connector-curvature="0" /></g></g><g
             id="g624"><g
               id="g626"><path
                 d="m 102.3,318.6 h 45 c 0,0 0,0 0,0 v 45 c 0,0 0,0 0,0 h -45 c 0,0 0,0 0,0 v -45 c 0,0 0,0 0,0 z"
                 style="fill:#000000;fill-opacity:1;fill-rule:nonzero;stroke:none"
                 id="path628"
                 inkscape:connector-curvature="0" /></g></g><g
             id="g630"><g
               id="g632"><path
                 d="m 152.925,324.225 h 33.75 c 0,0 0,0 0,0 v 33.75 c 0,0 0,0 0,0 h -33.75 c 0,0 0,0 0,0 v -33.75 c 0,0 0,0 0,0 z"
                 style="fill:#000000;fill-opacity:1;fill-rule:nonzero;stroke:none"
                 id="path634"
                 inkscape:connector-curvature="0" /></g></g><g
             id="g636"><g
               id="g638"><path
                 d="m 158.55,335.475 h 5.625 v 5.625 h -5.625 z m 0,5.625 h 5.625 v 5.625 h -5.625 z m 11.25,0 h 5.625 v 5.625 H 169.8 Z m -11.25,5.625 h 5.625 v 5.625 h -5.625 z m 5.625,0 h 5.625 v 5.625 h -5.625 z m 5.625,0 h 5.625 v 5.625 H 169.8 Z"
                 style="fill:#ffffff;fill-opacity:1;fill-rule:nonzero;stroke:none"
                 id="path640"
                 inkscape:connector-curvature="0" /></g></g><g
             id="g642"><g
               id="g644"><path
                 d="m 192.3,318.6 h 45 c 0,0 0,0 0,0 v 45 c 0,0 0,0 0,0 h -45 c 0,0 0,0 0,0 v -45 c 0,0 0,0 0,0 z"
                 style="fill:#000000;fill-opacity:1;fill-rule:nonzero;stroke:none"
                 id="path646"
                 inkscape:connector-curvature="0" /></g></g><g
             id="g648"><g
               id="g650"><path
                 d="m 242.925,324.225 h 33.75 c 0,0 0,0 0,0 v 33.75 c 0,0 0,0 0,0 h -33.75 c 0,0 0,0 0,0 v -33.75 c 0,0 0,0 0,0 z"
                 style="fill:#000000;fill-opacity:1;fill-rule:nonzero;stroke:none"
                 id="path652"
                 inkscape:connector-curvature="0" /></g></g><g
             id="g654"><g
               id="g656"><path
                 d="m 248.55,335.475 h 5.625 v 5.625 h -5.625 z m 16.875,0 h 5.625 v 5.625 h -5.625 z M 259.8,341.1 h 5.625 v 5.625 H 259.8 Z m -11.25,5.625 h 5.625 v 5.625 h -5.625 z m 16.875,0 h 5.625 v 5.625 h -5.625 z"
                 style="fill:#ffffff;fill-opacity:1;fill-rule:nonzero;stroke:none"
                 id="path658"
                 inkscape:connector-curvature="0" /></g></g><g
             id="g660"><g
               id="g662"><path
                 d="m 282.3,318.6 h 45 c 0,0 0,0 0,0 v 45 c 0,0 0,0 0,0 h -45 c 0,0 0,0 0,0 v -45 c 0,0 0,0 0,0 z"
                 style="fill:#000000;fill-opacity:1;fill-rule:nonzero;stroke:none"
                 id="path664"
                 inkscape:connector-curvature="0" /></g></g><g
             id="g666"><g
               id="g668"><path
                 d="m 332.925,324.225 h 33.75 c 0,0 0,0 0,0 v 33.75 c 0,0 0,0 0,0 h -33.75 c 0,0 0,0 0,0 v -33.75 c 0,0 0,0 0,0 z"
                 style="fill:#000000;fill-opacity:1;fill-rule:nonzero;stroke:none"
                 id="path670"
                 inkscape:connector-curvature="0" /></g></g><g
             id="g672"><g
               id="g674"><path
                 d="m 355.425,329.85 h 5.625 v 5.625 h -5.625 z m -16.875,5.625 h 5.625 v 5.625 h -5.625 z m 5.625,5.625 h 5.625 v 5.625 h -5.625 z m 5.625,0 h 5.625 v 5.625 H 349.8 Z m 5.625,0 h 5.625 v 5.625 h -5.625 z m -11.25,5.625 h 5.625 v 5.625 h -5.625 z m 11.25,0 h 5.625 v 5.625 h -5.625 z"
                 style="fill:#ffffff;fill-opacity:1;fill-rule:nonzero;stroke:none"
                 id="path676"
                 inkscape:connector-curvature="0" /></g></g><g
             id="g678"><g
               id="g680"><path
                 d="m 372.3,318.6 h 45 c 0,0 0,0 0,0 v 45 c 0,0 0,0 0,0 h -45 c 0,0 0,0 0,0 v -45 c 0,0 0,0 0,0 z"
                 style="fill:#000000;fill-opacity:1;fill-rule:nonzero;stroke:none"
                 id="path682"
                 inkscape:connector-curvature="0" /></g></g><g
             id="g684"><g
               id="g686"><path
                 d="m 422.925,324.225 h 33.75 c 0,0 0,0 0,0 v 33.75 c 0,0 0,0 0,0 h -33.75 c 0,0 0,0 0,0 v -33.75 c 0,0 0,0 0,0 z"
                 style="fill:#000000;fill-opacity:1;fill-rule:nonzero;stroke:none"
                 id="path688"
                 inkscape:connector-curvature="0" /></g></g><g
             id="g690"><g
               id="g692"><path
                 d="m 434.175,335.475 h 5.625 v 5.625 h -5.625 z m -5.625,5.625 h 5.625 v 5.625 h -5.625 z m 5.625,0 h 5.625 v 5.625 h -5.625 z m 5.625,0 h 5.625 v 5.625 H 439.8 Z m 5.625,0 h 5.625 v 5.625 h -5.625 z m -16.875,5.625 h 5.625 v 5.625 h -5.625 z m 5.625,0 h 5.625 v 5.625 h -5.625 z m 5.625,0 h 5.625 v 5.625 H 439.8 Z m 5.625,0 h 5.625 v 5.625 h -5.625 z"
                 style="fill:#ffffff;fill-opacity:1;fill-rule:nonzero;stroke:none"
                 id="path694"
                 inkscape:connector-curvature="0" /></g></g><g
             id="g696"><g
               id="g698"><path
                 d="m 462.3,318.6 h 45 c 0,0 0,0 0,0 v 45 c 0,0 0,0 0,0 h -45 c 0,0 0,0 0,0 v -45 c 0,0 0,0 0,0 z"
                 style="fill:#000000;fill-opacity:1;fill-rule:nonzero;stroke:none"
                 id="path700"
                 inkscape:connector-curvature="0" /></g></g><g
             id="g702"><g
               id="g704"><path
                 d="m 512.925,324.225 h 33.75 c 0,0 0,0 0,0 v 33.75 c 0,0 0,0 0,0 h -33.75 c 0,0 0,0 0,0 v -33.75 c 0,0 0,0 0,0 z"
                 style="fill:#000000;fill-opacity:1;fill-rule:nonzero;stroke:none"
                 id="path706"
                 inkscape:connector-curvature="0" /></g></g><g
             id="g708"><g
               id="g710"><path
                 d="m 518.55,335.475 h 5.625 v 5.625 h -5.625 z m 5.625,0 h 5.625 v 5.625 h -5.625 z m 11.25,0 h 5.625 v 5.625 h -5.625 z M 518.55,341.1 h 5.625 v 5.625 h -5.625 z m 5.625,0 h 5.625 v 5.625 h -5.625 z m 5.625,0 h 5.625 v 5.625 H 529.8 Z m 5.625,0 h 5.625 v 5.625 h -5.625 z m -11.25,5.625 h 5.625 v 5.625 h -5.625 z m 5.625,0 h 5.625 v 5.625 H 529.8 Z"
                 style="fill:#ffffff;fill-opacity:1;fill-rule:nonzero;stroke:none"
                 id="path712"
                 inkscape:connector-curvature="0" /></g></g><g
             id="g714"><g
               id="g716"><path
                 d="m 57.3,363.6 h 45 c 0,0 0,0 0,0 v 45 c 0,0 0,0 0,0 h -45 c 0,0 0,0 0,0 v -45 c 0,0 0,0 0,0 z"
                 style="fill:#000000;fill-opacity:1;fill-rule:nonzero;stroke:none"
                 id="path718"
                 inkscape:connector-curvature="0" /></g></g><g
             id="g720"><g
               id="g722"><path
                 d="m 107.925,369.225 h 33.75 c 0,0 0,0 0,0 v 33.75 c 0,0 0,0 0,0 h -33.75 c 0,0 0,0 0,0 v -33.75 c 0,0 0,0 0,0 z"
                 style="fill:#000000;fill-opacity:1;fill-rule:nonzero;stroke:none"
                 id="path724"
                 inkscape:connector-curvature="0" /></g></g><g
             id="g726"><g
               id="g728"><path
                 d="m 130.425,374.85 h 5.625 v 5.625 h -5.625 z m -16.875,5.625 h 5.625 v 5.625 h -5.625 z m 5.625,0 h 5.625 v 5.625 h -5.625 z m 0,5.625 h 5.625 v 5.625 h -5.625 z m 11.25,0 h 5.625 v 5.625 h -5.625 z m -16.875,5.625 h 5.625 v 5.625 h -5.625 z m 11.25,0 h 5.625 v 5.625 H 124.8 Z"
                 style="fill:#ffffff;fill-opacity:1;fill-rule:nonzero;stroke:none"
                 id="path730"
                 inkscape:connector-curvature="0" /></g></g><g
             id="g732"><g
               id="g734"><path
                 d="m 147.3,363.6 h 45 c 0,0 0,0 0,0 v 45 c 0,0 0,0 0,0 h -45 c 0,0 0,0 0,0 v -45 c 0,0 0,0 0,0 z"
                 style="fill:#000000;fill-opacity:1;fill-rule:nonzero;stroke:none"
                 id="path736"
                 inkscape:connector-curvature="0" /></g></g><g
             id="g738"><g
               id="g740"><path
                 d="m 197.925,369.225 h 33.75 c 0,0 0,0 0,0 v 33.75 c 0,0 0,0 0,0 h -33.75 c 0,0 0,0 0,0 v -33.75 c 0,0 0,0 0,0 z"
                 style="fill:#000000;fill-opacity:1;fill-rule:nonzero;stroke:none"
                 id="path742"
                 inkscape:connector-curvature="0" /></g></g><g
             id="g744"><g
               id="g746"><path
                 d="m 220.425,374.85 h 5.625 v 5.625 h -5.625 z m -11.25,5.625 h 5.625 v 5.625 h -5.625 z m 5.625,0 h 5.625 V 386.1 H 214.8 Z m 5.625,0 h 5.625 v 5.625 h -5.625 z m 0,5.625 h 5.625 v 5.625 h -5.625 z m -16.875,5.625 h 5.625 v 5.625 h -5.625 z"
                 style="fill:#ffffff;fill-opacity:1;fill-rule:nonzero;stroke:none"
                 id="path748"
                 inkscape:connector-curvature="0" /></g></g><g
             id="g750"><g
               id="g752"><path
                 d="m 237.3,363.6 h 45 c 0,0 0,0 0,0 v 45 c 0,0 0,0 0,0 h -45 c 0,0 0,0 0,0 v -45 c 0,0 0,0 0,0 z"
                 style="fill:#000000;fill-opacity:1;fill-rule:nonzero;stroke:none"
                 id="path754"
                 inkscape:connector-curvature="0" /></g></g><g
             id="g756"><g
               id="g758"><path
                 d="m 287.925,369.225 h 33.75 c 0,0 0,0 0,0 v 33.75 c 0,0 0,0 0,0 h -33.75 c 0,0 0,0 0,0 v -33.75 c 0,0 0,0 0,0 z"
                 style="fill:#000000;fill-opacity:1;fill-rule:nonzero;stroke:none"
                 id="path760"
                 inkscape:connector-curvature="0" /></g></g><g
             id="g762"><g
               id="g764"><path
                 d="m 304.8,374.85 h 5.625 v 5.625 H 304.8 Z m -11.25,5.625 h 5.625 v 5.625 h -5.625 z m 11.25,0 h 5.625 V 386.1 H 304.8 Z m 0,5.625 h 5.625 v 5.625 H 304.8 Z m -11.25,5.625 h 5.625 v 5.625 h -5.625 z"
                 style="fill:#ffffff;fill-opacity:1;fill-rule:nonzero;stroke:none"
                 id="path766"
                 inkscape:connector-curvature="0" /></g></g><g
             id="g768"><g
               id="g770"><path
                 d="m 327.3,363.6 h 45 c 0,0 0,0 0,0 v 45 c 0,0 0,0 0,0 h -45 c 0,0 0,0 0,0 v -45 c 0,0 0,0 0,0 z"
                 style="fill:#000000;fill-opacity:1;fill-rule:nonzero;stroke:none"
                 id="path772"
                 inkscape:connector-curvature="0" /></g></g><g
             id="g774"><g
               id="g776"><path
                 d="m 377.925,369.225 h 33.75 c 0,0 0,0 0,0 v 33.75 c 0,0 0,0 0,0 h -33.75 c 0,0 0,0 0,0 v -33.75 c 0,0 0,0 0,0 z"
                 style="fill:#000000;fill-opacity:1;fill-rule:nonzero;stroke:none"
                 id="path778"
                 inkscape:connector-curvature="0" /></g></g><g
             id="g780"><g
               id="g782"><path
                 d="m 394.8,374.85 h 5.625 v 5.625 H 394.8 Z m 5.625,0 h 5.625 v 5.625 h -5.625 z m -5.625,5.625 h 5.625 V 386.1 H 394.8 Z m -11.25,5.625 h 5.625 v 5.625 h -5.625 z m 0,5.625 h 5.625 v 5.625 h -5.625 z m 5.625,0 h 5.625 v 5.625 h -5.625 z"
                 style="fill:#ffffff;fill-opacity:1;fill-rule:nonzero;stroke:none"
                 id="path784"
                 inkscape:connector-curvature="0" /></g></g><g
             id="g786"><g
               id="g788"><path
                 d="m 417.3,363.6 h 45 c 0,0 0,0 0,0 v 45 c 0,0 0,0 0,0 h -45 c 0,0 0,0 0,0 v -45 c 0,0 0,0 0,0 z"
                 style="fill:#000000;fill-opacity:1;fill-rule:nonzero;stroke:none"
                 id="path790"
                 inkscape:connector-curvature="0" /></g></g><g
             id="g792"><g
               id="g794"><path
                 d="m 467.925,369.225 h 33.75 c 0,0 0,0 0,0 v 33.75 c 0,0 0,0 0,0 h -33.75 c 0,0 0,0 0,0 v -33.75 c 0,0 0,0 0,0 z"
                 style="fill:#000000;fill-opacity:1;fill-rule:nonzero;stroke:none"
                 id="path796"
                 inkscape:connector-curvature="0" /></g></g><g
             id="g798"><g
               id="g800"><path
                 d="m 484.8,374.85 h 5.625 v 5.625 H 484.8 Z m 5.625,0 h 5.625 v 5.625 h -5.625 z m -16.875,5.625 h 5.625 v 5.625 h -5.625 z m 0,5.625 h 5.625 v 5.625 h -5.625 z m 11.25,0 h 5.625 v 5.625 H 484.8 Z m 5.625,0 h 5.625 v 5.625 h -5.625 z m -5.625,5.625 h 5.625 v 5.625 H 484.8 Z"
                 style="fill:#ffffff;fill-opacity:1;fill-rule:nonzero;stroke:none"
                 id="path802"
                 inkscape:connector-curvature="0" /></g></g><g
             id="g804"><g
               id="g806"><path
                 d="m 507.3,363.6 h 45 c 0,0 0,0 0,0 v 45 c 0,0 0,0 0,0 h -45 c 0,0 0,0 0,0 v -45 c 0,0 0,0 0,0 z"
                 style="fill:#000000;fill-opacity:1;fill-rule:nonzero;stroke:none"
                 id="path808"
                 inkscape:connector-curvature="0" /></g></g><g
             id="g810"><g
               id="g812"><path
                 d="m 11.14,452.2 h -0.413 l -0.714,-2.333 h 0.409 l 0.371,1.346 0.139,0.501 c 0.0053,-0.0247 0.04533,-0.185 0.12,-0.481 v 0 l 0.372,-1.366 h 0.406 l 0.35,1.353 0.116,0.446 0.134,-0.45 0.4,-1.349 h 0.385 l -0.73,2.333 h -0.411 l -0.371,-1.397 -0.09,-0.398 z m 3.25,0 h -0.413 l -0.714,-2.333 h 0.409 l 0.371,1.346 0.138,0.501 c 0.006,-0.0247 0.04633,-0.185 0.121,-0.481 v 0 l 0.372,-1.366 h 0.406 l 0.349,1.353 0.117,0.446 0.134,-0.45 0.4,-1.349 h 0.384 l -0.729,2.333 h -0.411 l -0.371,-1.397 -0.09,-0.398 z m 3.25,0 h -0.413 l -0.714,-2.333 h 0.408 l 0.372,1.346 0.138,0.501 c 0.006,-0.0247 0.04633,-0.185 0.121,-0.481 v 0 l 0.371,-1.366 h 0.407 l 0.349,1.353 0.117,0.446 0.134,-0.45 0.4,-1.349 h 0.384 l -0.729,2.333 h -0.411 l -0.372,-1.397 -0.09,-0.398 z m 2.72,0 h -0.45 v -0.45 h 0.45 z m 2.211,-0.855 v 0 l 0.388,0.051 c -0.042,0.268 -0.150667,0.47767 -0.326,0.629 -0.174667,0.152 -0.389667,0.228 -0.645,0.228 v 0 c -0.319333,0 -0.576,-0.10433 -0.77,-0.313 -0.194,-0.20867 -0.291,-0.508 -0.291,-0.898 v 0 c 0,-0.252 0.04167,-0.47233 0.125,-0.661 0.08333,-0.18933 0.210333,-0.33133 0.381,-0.426 0.170667,-0.094 0.356333,-0.141 0.557,-0.141 v 0 c 0.254,0 0.461333,0.064 0.622,0.192 0.161333,0.128 0.264667,0.31 0.31,0.546 v 0 l -0.384,0.059 c -0.03667,-0.15667 -0.101667,-0.27433 -0.195,-0.353 -0.09267,-0.0793 -0.205,-0.119 -0.337,-0.119 v 0 c -0.199333,0 -0.361333,0.0713 -0.486,0.214 -0.124667,0.14267 -0.187,0.36867 -0.187,0.678 v 0 c 0,0.31333 0.06033,0.541 0.181,0.683 0.12,0.14267 0.276667,0.214 0.47,0.214 v 0 c 0.155333,0 0.285,-0.0477 0.389,-0.143 0.104,-0.0953 0.17,-0.242 0.198,-0.44 z m 2.25,0.567 v 0 c -0.146667,0.12467 -0.287667,0.21267 -0.423,0.264 -0.136,0.0513 -0.281667,0.077 -0.437,0.077 v 0 c -0.256,0 -0.453,-0.0627 -0.591,-0.188 -0.137333,-0.12533 -0.206,-0.28533 -0.206,-0.48 v 0 c 0,-0.11467 0.026,-0.219 0.078,-0.313 0.052,-0.0947 0.12,-0.17067 0.204,-0.228 0.08467,-0.0567 0.179667,-0.0997 0.285,-0.129 v 0 c 0.07733,-0.0207 0.194333,-0.0407 0.351,-0.06 v 0 c 0.319333,-0.038 0.554667,-0.0833 0.706,-0.136 v 0 c 0.0013,-0.054 0.002,-0.0883 0.002,-0.103 v 0 c 0,-0.16133 -0.03733,-0.275 -0.112,-0.341 v 0 c -0.101333,-0.0893 -0.251667,-0.134 -0.451,-0.134 v 0 c -0.186,0 -0.323333,0.0327 -0.412,0.098 -0.08867,0.0653 -0.154,0.18067 -0.196,0.346 v 0 l -0.387,-0.053 c 0.03533,-0.16533 0.09333,-0.299 0.174,-0.401 0.08,-0.10133 0.196333,-0.17967 0.349,-0.235 0.152,-0.0547 0.328333,-0.082 0.529,-0.082 v 0 c 0.199333,0 0.361333,0.0233 0.486,0.07 0.124667,0.0467 0.216333,0.10567 0.275,0.177 0.05867,0.0713 0.09967,0.161 0.123,0.269 v 0 c 0.01333,0.0673 0.02,0.189 0.02,0.365 v 0 0.527 c 0,0.368 0.0083,0.60067 0.025,0.698 0.01667,0.0973 0.05,0.19067 0.1,0.28 v 0 H 24.9 c -0.04133,-0.082 -0.06767,-0.178 -0.079,-0.288 z m -0.033,-0.738 v -0.145 c -0.144,0.0587 -0.359333,0.10833 -0.646,0.149 v 0 c -0.162667,0.0233 -0.277667,0.0497 -0.345,0.079 -0.06733,0.0293 -0.119333,0.0723 -0.156,0.129 -0.03667,0.0567 -0.055,0.11933 -0.055,0.188 v 0 c 0,0.10533 0.03967,0.193 0.119,0.263 0.08,0.0707 0.197,0.106 0.351,0.106 v 0 c 0.152,0 0.287333,-0.0333 0.406,-0.1 0.118667,-0.0667 0.206,-0.158 0.262,-0.274 v 0 c 0.04267,-0.0893 0.064,-0.221 0.064,-0.395 z m 1.399,1.026 h -0.395 v -3.221 h 0.395 z m 1.011,-2.766 h -0.396 v -0.455 h 0.396 z m 0,2.766 h -0.396 v -2.333 h 0.396 z m 0.967,-0.292 v 0.292 h -0.367 v -3.221 h 0.395 v 1.149 c 0.167333,-0.20933 0.380667,-0.314 0.64,-0.314 v 0 c 0.143333,0 0.279,0.029 0.407,0.087 0.128667,0.0573 0.234333,0.13833 0.317,0.243 0.08267,0.10533 0.147333,0.23167 0.194,0.379 0.04733,0.148 0.071,0.30633 0.071,0.475 v 0 c 0,0.4 -0.099,0.709 -0.297,0.927 -0.198,0.21867 -0.435333,0.328 -0.712,0.328 v 0 c -0.275333,0 -0.491333,-0.115 -0.648,-0.345 z m -0.005,-0.892 v 0 c 0,0.27933 0.03833,0.48133 0.115,0.606 v 0 c 0.124,0.204 0.292333,0.306 0.505,0.306 v 0 c 0.172667,0 0.322,-0.0753 0.448,-0.226 0.126,-0.15 0.189,-0.37367 0.189,-0.671 v 0 c 0,-0.30467 -0.06033,-0.52967 -0.181,-0.675 -0.120667,-0.14467 -0.266667,-0.217 -0.438,-0.217 v 0 c -0.173333,0 -0.323,0.075 -0.449,0.225 -0.126,0.15 -0.189,0.36733 -0.189,0.652 z m 2.705,1.184 h -0.45 v -0.45 h 0.45 z m 1.086,-2.766 h -0.396 v -0.455 h 0.396 z m 0,2.766 h -0.396 v -2.333 h 0.396 z m 0.455,-1.167 v 0 c 0,-0.432 0.12,-0.752 0.36,-0.96 v 0 c 0.200667,-0.17267 0.445333,-0.259 0.734,-0.259 v 0 c 0.320667,0 0.582667,0.105 0.786,0.315 0.204,0.21 0.306,0.50033 0.306,0.871 v 0 c 0,0.30067 -0.045,0.537 -0.135,0.709 -0.09,0.172 -0.221333,0.30567 -0.394,0.401 -0.172,0.0953 -0.359667,0.143 -0.563,0.143 v 0 c -0.326667,0 -0.590667,-0.10467 -0.792,-0.314 -0.201333,-0.21 -0.302,-0.512 -0.302,-0.906 z m 0.406,0 v 0 c 0,0.29867 0.06533,0.52267 0.196,0.672 0.13,0.14867 0.294,0.223 0.492,0.223 v 0 c 0.196,0 0.359333,-0.075 0.49,-0.225 0.13,-0.14933 0.195,-0.377 0.195,-0.683 v 0 c 0,-0.28867 -0.06533,-0.50733 -0.196,-0.656 -0.131333,-0.14867 -0.294333,-0.223 -0.489,-0.223 v 0 c -0.198,0 -0.362,0.074 -0.492,0.222 -0.130667,0.148 -0.196,0.37133 -0.196,0.67 z m 3.955,2.114 h -0.345 v -4.223 h 0.345 z m 2.457,-2.694 v 0 c -0.164,-0.06 -0.285667,-0.14567 -0.365,-0.257 -0.07933,-0.11133 -0.119,-0.24467 -0.119,-0.4 v 0 c 0,-0.234 0.08433,-0.431 0.253,-0.591 0.168667,-0.15933 0.392667,-0.239 0.672,-0.239 v 0 c 0.281333,0 0.507667,0.0817 0.679,0.245 0.171333,0.16333 0.257,0.362 0.257,0.596 v 0 c 0,0.14933 -0.039,0.27933 -0.117,0.39 -0.07867,0.11067 -0.197667,0.196 -0.357,0.256 v 0 c 0.197333,0.0647 0.347667,0.16867 0.451,0.312 0.103333,0.144 0.155,0.31533 0.155,0.514 v 0 c 0,0.27533 -0.09733,0.507 -0.292,0.695 -0.194667,0.18733 -0.451,0.281 -0.769,0.281 v 0 c -0.318,0 -0.574333,-0.094 -0.769,-0.282 -0.194667,-0.18867 -0.292,-0.42367 -0.292,-0.705 v 0 c 0,-0.20933 0.053,-0.38467 0.159,-0.526 0.106,-0.14133 0.257333,-0.23767 0.454,-0.289 z m -0.079,-0.67 v 0 c 0,0.15267 0.049,0.27733 0.147,0.374 0.098,0.0967 0.225333,0.145 0.382,0.145 v 0 c 0.152667,0 0.277667,-0.048 0.375,-0.144 0.09733,-0.096 0.146,-0.21367 0.146,-0.353 v 0 c 0,-0.14533 -0.05033,-0.26733 -0.151,-0.366 -0.1,-0.0987 -0.224667,-0.148 -0.374,-0.148 v 0 c -0.151333,0 -0.276667,0.0483 -0.376,0.145 -0.09933,0.0967 -0.149,0.21233 -0.149,0.347 z m -0.128,1.488 v 0 c 0,0.11267 0.02667,0.22167 0.08,0.327 0.05333,0.10533 0.133,0.187 0.239,0.245 0.105333,0.058 0.218667,0.087 0.34,0.087 v 0 c 0.189333,0 0.345333,-0.061 0.468,-0.183 0.123333,-0.12133 0.185,-0.27567 0.185,-0.463 v 0 c 0,-0.19067 -0.06333,-0.34833 -0.19,-0.473 -0.126667,-0.124 -0.285333,-0.186 -0.476,-0.186 v 0 c -0.186,0 -0.34,0.0613 -0.462,0.184 -0.122667,0.12333 -0.184,0.27733 -0.184,0.462 z m 2.426,0.929 h -0.479 l 0.852,-1.213 -0.788,-1.12 h 0.494 l 0.358,0.547 c 0.06733,0.104 0.121667,0.191 0.163,0.261 v 0 c 0.064,-0.0967 0.123333,-0.18233 0.178,-0.257 v 0 l 0.393,-0.551 h 0.472 l -0.806,1.098 0.868,1.235 h -0.486 l -0.479,-0.725 -0.127,-0.196 z m 3.414,-3.234 v 3.234 h -0.395 v -2.52 c -0.09533,0.0907 -0.220333,0.18133 -0.375,0.272 -0.154667,0.0907 -0.293333,0.159 -0.416,0.205 v 0 -0.383 c 0.221333,-0.104 0.414667,-0.23 0.58,-0.378 0.165333,-0.148 0.282667,-0.29133 0.352,-0.43 v 0 z m 2.169,0 v 3.234 h -0.395 v -2.52 c -0.09533,0.0907 -0.220333,0.18133 -0.375,0.272 -0.154667,0.0907 -0.293333,0.159 -0.416,0.205 v 0 -0.383 c 0.220667,-0.104 0.414,-0.23 0.58,-0.378 0.165333,-0.148 0.282333,-0.29133 0.351,-0.43 v 0 z m 2.835,4.181 h -0.345 v -4.223 h 0.345 z m 4.306,-2.076 v 0 l 0.427,0.107 c -0.09,0.35 -0.251,0.617 -0.483,0.801 -0.232,0.184 -0.515667,0.276 -0.851,0.276 v 0 c -0.347333,0 -0.629667,-0.0707 -0.847,-0.212 -0.218,-0.14133 -0.383667,-0.346 -0.497,-0.614 -0.113333,-0.268 -0.17,-0.556 -0.17,-0.864 v 0 c 0,-0.33533 0.064,-0.628 0.192,-0.878 0.128,-0.24933 0.310333,-0.439 0.547,-0.569 0.236667,-0.12933 0.497,-0.194 0.781,-0.194 v 0 c 0.322667,0 0.593667,0.082 0.813,0.246 0.22,0.164 0.373333,0.39467 0.46,0.692 v 0 l -0.42,0.099 c -0.07467,-0.23467 -0.183,-0.40533 -0.325,-0.512 -0.142,-0.10667 -0.320667,-0.16 -0.536,-0.16 v 0 c -0.248,0 -0.455,0.0593 -0.621,0.178 -0.166667,0.11867 -0.283667,0.278 -0.351,0.478 -0.06733,0.19933 -0.101,0.40533 -0.101,0.618 v 0 c 0,0.274 0.04,0.513 0.12,0.717 0.08,0.20467 0.204,0.35767 0.372,0.459 0.168667,0.10067 0.351333,0.151 0.548,0.151 v 0 c 0.238667,0 0.440667,-0.0687 0.606,-0.206 0.165333,-0.138 0.277333,-0.34233 0.336,-0.613 z m 1.297,1.129 h -0.396 v -3.221 h 0.396 v 1.156 c 0.184,-0.214 0.416667,-0.321 0.698,-0.321 v 0 c 0.173333,0 0.323667,0.034 0.451,0.102 0.127333,0.068 0.218333,0.162 0.273,0.282 0.05533,0.12 0.083,0.29433 0.083,0.523 v 0 1.479 h -0.396 v -1.479 c 0,-0.19733 -0.04267,-0.34133 -0.128,-0.432 -0.086,-0.09 -0.207333,-0.135 -0.364,-0.135 v 0 c -0.117333,0 -0.227667,0.0307 -0.331,0.092 -0.103333,0.0607 -0.176667,0.143 -0.22,0.247 -0.044,0.104 -0.066,0.24733 -0.066,0.43 v 0 z m 3.704,-0.751 v 0 l 0.409,0.05 c -0.06467,0.23867 -0.184,0.424 -0.358,0.556 -0.174667,0.132 -0.397333,0.198 -0.668,0.198 v 0 c -0.341333,0 -0.612,-0.10533 -0.812,-0.316 -0.2,-0.21 -0.3,-0.50467 -0.3,-0.884 v 0 c 0,-0.39267 0.101,-0.69733 0.303,-0.914 0.202,-0.21667 0.464333,-0.325 0.787,-0.325 v 0 c 0.312,0 0.566667,0.106 0.764,0.318 0.198,0.21267 0.297,0.51167 0.297,0.897 v 0 c 0,0.0233 -6.67e-4,0.0583 -0.002,0.105 v 0 h -1.74 c 0.01467,0.25667 0.087,0.453 0.217,0.589 0.130667,0.13667 0.293333,0.205 0.488,0.205 v 0 c 0.145333,0 0.269,-0.0383 0.371,-0.115 0.102667,-0.076 0.184,-0.19733 0.244,-0.364 z m -1.298,-0.64 v 0 h 1.303 c -0.018,-0.196 -0.068,-0.34333 -0.15,-0.442 v 0 c -0.126,-0.152 -0.289333,-0.228 -0.49,-0.228 v 0 c -0.181333,0 -0.334,0.0607 -0.458,0.182 -0.124,0.122 -0.192333,0.28467 -0.205,0.488 z m 3.726,0.536 v 0 l 0.389,0.051 c -0.04267,0.268 -0.151333,0.47767 -0.326,0.629 -0.175333,0.152 -0.390333,0.228 -0.645,0.228 v 0 c -0.319333,0 -0.576,-0.10433 -0.77,-0.313 -0.194,-0.20867 -0.291,-0.508 -0.291,-0.898 v 0 c 0,-0.252 0.04167,-0.47233 0.125,-0.661 0.08333,-0.18933 0.210333,-0.33133 0.381,-0.426 0.170667,-0.094 0.356333,-0.141 0.557,-0.141 v 0 c 0.253333,0 0.460667,0.064 0.622,0.192 0.161333,0.128 0.264667,0.31 0.31,0.546 v 0 l -0.385,0.059 c -0.03667,-0.15667 -0.101333,-0.27433 -0.194,-0.353 -0.09333,-0.0793 -0.206,-0.119 -0.338,-0.119 v 0 c -0.198667,0 -0.360333,0.0713 -0.485,0.214 -0.124667,0.14267 -0.187,0.36867 -0.187,0.678 v 0 c 0,0.31333 0.06,0.541 0.18,0.683 0.12,0.14267 0.277,0.214 0.471,0.214 v 0 c 0.154667,0 0.284,-0.0477 0.388,-0.143 0.104,-0.0953 0.17,-0.242 0.198,-0.44 z m 1.125,0.855 h -0.395 v -3.221 h 0.395 v 1.837 l 0.936,-0.949 h 0.512 l -0.892,0.865 0.982,1.468 H 63.771 L 63,451.007 l -0.279,0.268 z m 3.45,-0.751 v 0 l 0.409,0.05 c -0.06467,0.23867 -0.184333,0.424 -0.359,0.556 -0.174,0.132 -0.396667,0.198 -0.668,0.198 v 0 c -0.340667,0 -0.611,-0.10533 -0.811,-0.316 -0.2,-0.21 -0.3,-0.50467 -0.3,-0.884 v 0 c 0,-0.39267 0.101,-0.69733 0.303,-0.914 0.202,-0.21667 0.464,-0.325 0.786,-0.325 v 0 c 0.312667,0 0.567667,0.106 0.765,0.318 0.198,0.21267 0.297,0.51167 0.297,0.897 v 0 c 0,0.0233 -6.67e-4,0.0583 -0.002,0.105 v 0 H 64.85 c 0.01467,0.25667 0.08733,0.453 0.218,0.589 0.13,0.13667 0.292667,0.205 0.488,0.205 v 0 c 0.144667,0 0.268333,-0.0383 0.371,-0.115 0.102667,-0.076 0.184,-0.19733 0.244,-0.364 z m -1.299,-0.64 v 0 h 1.303 c -0.01733,-0.196 -0.067,-0.34333 -0.149,-0.442 v 0 c -0.126,-0.152 -0.289333,-0.228 -0.49,-0.228 v 0 c -0.182,0 -0.334667,0.0607 -0.458,0.182 -0.124,0.122 -0.192667,0.28467 -0.206,0.488 z m 2.595,1.391 h -0.395 v -2.333 h 0.356 v 0.353 c 0.09067,-0.16533 0.174333,-0.27433 0.251,-0.327 0.07733,-0.0527 0.162,-0.079 0.254,-0.079 v 0 c 0.133333,0 0.269,0.0423 0.407,0.127 v 0 l -0.137,0.367 c -0.09667,-0.0573 -0.193333,-0.086 -0.29,-0.086 v 0 c -0.086,0 -0.163667,0.026 -0.233,0.078 -0.06867,0.052 -0.117667,0.12433 -0.147,0.217 v 0 c -0.044,0.14067 -0.066,0.29433 -0.066,0.461 v 0 z m 2.263,-1.035 v 0 l 0.403,-0.035 c 0.01867,0.16133 0.063,0.29367 0.133,0.397 0.06933,0.10267 0.177333,0.186 0.324,0.25 0.146,0.064 0.310667,0.096 0.494,0.096 v 0 c 0.162667,0 0.306333,-0.0243 0.431,-0.073 0.124,-0.048 0.216667,-0.11433 0.278,-0.199 0.06067,-0.084 0.091,-0.176 0.091,-0.276 v 0 c 0,-0.10067 -0.02933,-0.18867 -0.088,-0.264 -0.05867,-0.0753 -0.155333,-0.13867 -0.29,-0.19 v 0 c -0.08667,-0.034 -0.278,-0.0863 -0.574,-0.157 -0.295333,-0.0713 -0.502333,-0.13867 -0.621,-0.202 v 0 c -0.154,-0.08 -0.268667,-0.17967 -0.344,-0.299 -0.07533,-0.12 -0.113,-0.25367 -0.113,-0.401 v 0 c 0,-0.16267 0.046,-0.31467 0.138,-0.456 0.092,-0.14133 0.226667,-0.24867 0.404,-0.322 0.177333,-0.0733 0.374333,-0.11 0.591,-0.11 v 0 c 0.238667,0 0.449333,0.0383 0.632,0.115 0.182667,0.0773 0.323,0.19067 0.421,0.34 0.098,0.14933 0.150667,0.31833 0.158,0.507 v 0 l -0.409,0.031 c -0.022,-0.20333 -0.09633,-0.357 -0.223,-0.461 -0.126667,-0.104 -0.313667,-0.156 -0.561,-0.156 v 0 c -0.258,0 -0.446,0.047 -0.564,0.141 -0.118,0.0947 -0.177,0.20867 -0.177,0.342 v 0 c 0,0.116 0.042,0.21133 0.126,0.286 v 0 c 0.082,0.0747 0.296,0.151 0.642,0.229 0.346667,0.0787 0.584333,0.14733 0.713,0.206 v 0 c 0.188,0.086 0.326667,0.19533 0.416,0.328 0.08933,0.13267 0.134,0.28533 0.134,0.458 v 0 c 0,0.17133 -0.04933,0.333 -0.148,0.485 -0.098,0.15133 -0.239,0.26933 -0.423,0.354 -0.183333,0.084 -0.39,0.126 -0.62,0.126 v 0 c -0.291333,0 -0.535667,-0.0427 -0.733,-0.128 -0.197333,-0.0847 -0.352,-0.21233 -0.464,-0.383 -0.112,-0.17067 -0.171,-0.36367 -0.177,-0.579 z m 3.494,-1.731 h -0.395 v -0.455 h 0.395 z m 0,2.766 h -0.395 v -2.333 h 0.395 z m 2.459,0 h -2.066 v -0.321 l 1.486,-1.705 c -0.168667,0.009 -0.317333,0.013 -0.446,0.013 v 0 h -0.952 v -0.32 h 1.908 v 0.261 l -1.264,1.481 -0.244,0.27 c 0.177333,-0.0133 0.343667,-0.02 0.499,-0.02 v 0 h 1.079 z m 1.991,-0.751 v 0 l 0.408,0.05 c -0.064,0.23867 -0.183333,0.424 -0.358,0.556 -0.174,0.132 -0.396667,0.198 -0.668,0.198 v 0 c -0.341333,0 -0.612,-0.10533 -0.812,-0.316 -0.2,-0.21 -0.3,-0.50467 -0.3,-0.884 v 0 c 0,-0.39267 0.101333,-0.69733 0.304,-0.914 0.202,-0.21667 0.464,-0.325 0.786,-0.325 v 0 c 0.312,0 0.567,0.106 0.765,0.318 0.197333,0.21267 0.296,0.51167 0.296,0.897 v 0 c 0,0.0233 -6.67e-4,0.0583 -0.002,0.105 v 0 h -1.74 c 0.01467,0.25667 0.08733,0.453 0.218,0.589 0.13,0.13667 0.292333,0.205 0.487,0.205 v 0 c 0.145333,0 0.269333,-0.0383 0.372,-0.115 0.102,-0.076 0.183333,-0.19733 0.244,-0.364 z m -1.299,-0.64 v 0 h 1.303 c -0.01733,-0.196 -0.067,-0.34333 -0.149,-0.442 v 0 c -0.126,-0.152 -0.289333,-0.228 -0.49,-0.228 v 0 c -0.182,0 -0.335,0.0607 -0.459,0.182 -0.123333,0.122 -0.191667,0.28467 -0.205,0.488 z m 2.764,-0.492 h -0.45 v -0.45 h 0.45 z m 0,1.883 h -0.45 v -0.45 h 0.45 z m 3.494,0 h -0.396 v -0.771 H 80.84 v -0.363 l 1.47,-2.087 h 0.323 v 2.087 h 0.435 v 0.363 h -0.435 z m -1.404,-1.134 h 1.008 v -1.452 z m 2.243,0.29 v 0 l 0.415,-0.035 c 0.03133,0.202 0.103,0.354 0.215,0.456 0.112,0.102 0.247,0.153 0.405,0.153 v 0 c 0.190667,0 0.351667,-0.072 0.483,-0.216 0.132,-0.14333 0.198,-0.33367 0.198,-0.571 v 0 c 0,-0.22533 -0.06333,-0.40333 -0.19,-0.534 -0.126667,-0.13 -0.292667,-0.195 -0.498,-0.195 v 0 c -0.127333,0 -0.242,0.0287 -0.344,0.086 -0.102667,0.058 -0.183333,0.13333 -0.242,0.226 v 0 l -0.372,-0.049 0.312,-1.654 h 1.602 v 0.378 h -1.285 l -0.174,0.865 c 0.193333,-0.13467 0.396333,-0.202 0.609,-0.202 v 0 c 0.281333,0 0.518667,0.0973 0.712,0.292 0.193333,0.19533 0.29,0.446 0.29,0.752 v 0 c 0,0.29133 -0.085,0.54333 -0.255,0.756 v 0 c -0.206667,0.26067 -0.488667,0.391 -0.846,0.391 v 0 c -0.292667,0 -0.531667,-0.082 -0.717,-0.246 -0.185333,-0.164 -0.291333,-0.38167 -0.318,-0.653 z m 4.258,0.844 h -0.395 v -2.333 h 0.354 v 0.327 c 0.07333,-0.114 0.170667,-0.206 0.292,-0.276 0.121333,-0.0693 0.259667,-0.104 0.415,-0.104 v 0 c 0.173333,0 0.315,0.0357 0.425,0.107 0.110667,0.072 0.188667,0.17233 0.234,0.301 v 0 c 0.184667,-0.272 0.425,-0.408 0.721,-0.408 v 0 c 0.231333,0 0.409333,0.064 0.534,0.192 0.124667,0.128 0.187,0.32533 0.187,0.592 v 0 1.602 h -0.393 v -1.47 c 0,-0.158 -0.013,-0.272 -0.039,-0.342 -0.02533,-0.0693 -0.07167,-0.12533 -0.139,-0.168 -0.068,-0.042 -0.147333,-0.063 -0.238,-0.063 v 0 c -0.164,0 -0.3,0.0543 -0.408,0.163 -0.108667,0.10933 -0.163,0.284 -0.163,0.524 v 0 1.356 h -0.396 v -1.516 c 0,-0.176 -0.032,-0.308 -0.096,-0.396 -0.06467,-0.0873 -0.170333,-0.131 -0.317,-0.131 v 0 c -0.111333,0 -0.214,0.029 -0.308,0.087 -0.09467,0.0587 -0.163333,0.14467 -0.206,0.258 -0.04267,0.11267 -0.064,0.275 -0.064,0.487 v 0 z m 3.749,0 h -0.396 v -2.333 h 0.354 v 0.327 c 0.07333,-0.114 0.170667,-0.206 0.292,-0.276 0.122,-0.0693 0.260667,-0.104 0.416,-0.104 v 0 c 0.172667,0 0.314333,0.0357 0.425,0.107 0.110667,0.072 0.188667,0.17233 0.234,0.301 v 0 c 0.184667,-0.272 0.425,-0.408 0.721,-0.408 v 0 c 0.231333,0 0.409333,0.064 0.534,0.192 0.124,0.128 0.186,0.32533 0.186,0.592 v 0 1.602 h -0.393 v -1.47 c 0,-0.158 -0.01267,-0.272 -0.038,-0.342 -0.026,-0.0693 -0.07267,-0.12533 -0.14,-0.168 -0.06733,-0.042 -0.146333,-0.063 -0.237,-0.063 v 0 c -0.164,0 -0.300333,0.0543 -0.409,0.163 -0.108667,0.10933 -0.163,0.284 -0.163,0.524 v 0 1.356 H 92.47 v -1.516 c 0,-0.176 -0.03233,-0.308 -0.097,-0.396 -0.064,-0.0873 -0.169333,-0.131 -0.316,-0.131 v 0 c -0.111333,0 -0.214333,0.029 -0.309,0.087 -0.09467,0.0587 -0.163,0.14467 -0.205,0.258 -0.04267,0.11267 -0.064,0.275 -0.064,0.487 v 0 z m 5.065,0.947 h -0.345 v -4.223 h 0.345 z m 3.17,-0.947 h -1.162 v -3.221 h 1.11 c 0.25,0 0.441,0.0153 0.573,0.046 v 0 c 0.18467,0.0427 0.34233,0.11967 0.473,0.231 v 0 c 0.16933,0.14333 0.29633,0.32667 0.381,0.55 0.084,0.22333 0.126,0.47867 0.126,0.766 v 0 c 0,0.24467 -0.0287,0.46133 -0.086,0.65 -0.0567,0.18933 -0.12967,0.34567 -0.219,0.469 -0.0893,0.124 -0.18733,0.22167 -0.294,0.293 -0.106,0.0707 -0.234,0.12433 -0.384,0.161 -0.15,0.0367 -0.322667,0.055 -0.518,0.055 z m -0.736,-2.841 v 2.461 h 0.688 c 0.212667,0 0.37933,-0.0197 0.5,-0.059 0.12067,-0.04 0.217,-0.0957 0.289,-0.167 v 0 c 0.10067,-0.10133 0.17933,-0.23733 0.236,-0.408 0.0567,-0.17067 0.085,-0.37767 0.085,-0.621 v 0 c 0,-0.33667 -0.0553,-0.59533 -0.166,-0.776 -0.11067,-0.18133 -0.245,-0.30267 -0.403,-0.364 v 0 c -0.11467,-0.044 -0.298667,-0.066 -0.552,-0.066 v 0 z m 3.171,0.075 h -0.396 v -0.455 h 0.396 z m 0,2.766 h -0.396 v -2.333 h 0.396 z m 2.125,-0.855 v 0 l 0.389,0.051 c -0.0427,0.268 -0.15167,0.47767 -0.327,0.629 -0.17467,0.152 -0.38967,0.228 -0.645,0.228 v 0 c -0.31933,0 -0.576,-0.10433 -0.77,-0.313 -0.194,-0.20867 -0.291,-0.508 -0.291,-0.898 v 0 c 0,-0.252 0.0417,-0.47233 0.125,-0.661 0.084,-0.18933 0.21133,-0.33133 0.382,-0.426 0.17067,-0.094 0.35633,-0.141 0.557,-0.141 v 0 c 0.25333,0 0.46033,0.064 0.621,0.192 0.16133,0.128 0.26467,0.31 0.31,0.546 v 0 l -0.384,0.059 c -0.0367,-0.15667 -0.10167,-0.27433 -0.195,-0.353 -0.0927,-0.0793 -0.205,-0.119 -0.337,-0.119 v 0 c -0.19933,0 -0.36133,0.0713 -0.486,0.214 -0.124,0.14267 -0.186,0.36867 -0.186,0.678 v 0 c 0,0.31333 0.06,0.541 0.18,0.683 0.12,0.14267 0.27667,0.214 0.47,0.214 v 0 c 0.15533,0 0.285,-0.0477 0.389,-0.143 0.104,-0.0953 0.17,-0.242 0.198,-0.44 z m 1.591,0.501 v 0 l 0.057,0.35 c -0.11133,0.0233 -0.211,0.035 -0.299,0.035 v 0 c -0.144,0 -0.25533,-0.0227 -0.334,-0.068 -0.0793,-0.0453 -0.135,-0.105 -0.167,-0.179 -0.0327,-0.074 -0.049,-0.22967 -0.049,-0.467 v 0 -1.343 h -0.29 v -0.307 h 0.29 v -0.578 l 0.394,-0.238 v 0.816 h 0.398 v 0.307 h -0.398 v 1.365 c 0,0.11267 0.007,0.185 0.021,0.217 0.014,0.032 0.0367,0.0577 0.068,0.077 0.0313,0.0193 0.0763,0.029 0.135,0.029 v 0 c 0.044,0 0.102,-0.005 0.174,-0.016 z m 0.784,-2.412 h -0.396 v -0.455 h 0.396 z m 0,2.766 h -0.396 v -2.333 h 0.396 z m 0.455,-1.167 v 0 c 0,-0.432 0.12,-0.752 0.36,-0.96 v 0 c 0.20067,-0.17267 0.44533,-0.259 0.734,-0.259 v 0 c 0.32067,0 0.583,0.105 0.787,0.315 0.20333,0.21 0.305,0.50033 0.305,0.871 v 0 c 0,0.30067 -0.045,0.537 -0.135,0.709 -0.09,0.172 -0.221,0.30567 -0.393,0.401 -0.17267,0.0953 -0.36067,0.143 -0.564,0.143 v 0 c -0.32667,0 -0.59067,-0.10467 -0.792,-0.314 -0.20133,-0.21 -0.302,-0.512 -0.302,-0.906 z m 0.406,0 v 0 c 0,0.29867 0.0653,0.52267 0.196,0.672 0.13,0.14867 0.294,0.223 0.492,0.223 v 0 c 0.196,0 0.35933,-0.075 0.49,-0.225 0.13067,-0.14933 0.196,-0.377 0.196,-0.683 v 0 c 0,-0.28867 -0.0657,-0.50733 -0.197,-0.656 -0.13133,-0.14867 -0.29433,-0.223 -0.489,-0.223 v 0 c -0.198,0 -0.362,0.074 -0.492,0.222 -0.13067,0.148 -0.196,0.37133 -0.196,0.67 z m 2.639,1.167 h -0.395 v -2.333 h 0.356 v 0.331 c 0.17133,-0.256 0.41867,-0.384 0.742,-0.384 v 0 c 0.14067,0 0.27,0.0253 0.388,0.076 0.118,0.05 0.20633,0.116 0.265,0.198 0.0587,0.082 0.0997,0.17967 0.123,0.293 v 0 c 0.0147,0.0733 0.022,0.20133 0.022,0.384 v 0 1.435 h -0.396 v -1.419 c 0,-0.16133 -0.0153,-0.282 -0.046,-0.362 -0.0307,-0.08 -0.085,-0.14367 -0.163,-0.191 -0.0787,-0.0473 -0.17067,-0.071 -0.276,-0.071 v 0 c -0.16867,0 -0.314,0.0533 -0.436,0.16 -0.12267,0.10667 -0.184,0.30967 -0.184,0.609 v 0 z m 3.63,-0.288 v 0 c -0.14667,0.12467 -0.28767,0.21267 -0.423,0.264 -0.13533,0.0513 -0.28067,0.077 -0.436,0.077 v 0 c -0.25667,0 -0.45367,-0.0627 -0.591,-0.188 -0.138,-0.12533 -0.207,-0.28533 -0.207,-0.48 v 0 c 0,-0.11467 0.026,-0.219 0.078,-0.313 0.052,-0.0947 0.12033,-0.17067 0.205,-0.228 0.084,-0.0567 0.17867,-0.0997 0.284,-0.129 v 0 c 0.078,-0.0207 0.19533,-0.0407 0.352,-0.06 v 0 c 0.31933,-0.038 0.55433,-0.0833 0.705,-0.136 v 0 c 0.001,-0.054 0.002,-0.0883 0.002,-0.103 v 0 c 0,-0.16133 -0.0373,-0.275 -0.112,-0.341 v 0 c -0.10067,-0.0893 -0.25067,-0.134 -0.45,-0.134 v 0 c -0.186,0 -0.32333,0.0327 -0.412,0.098 -0.0887,0.0653 -0.15433,0.18067 -0.197,0.346 v 0 l -0.387,-0.053 c 0.0353,-0.16533 0.0933,-0.299 0.174,-0.401 0.0807,-0.10133 0.197,-0.17967 0.349,-0.235 0.15267,-0.0547 0.32933,-0.082 0.53,-0.082 v 0 c 0.19933,0 0.36133,0.0233 0.486,0.07 0.124,0.0467 0.21533,0.10567 0.274,0.177 0.0587,0.0713 0.0997,0.161 0.123,0.269 v 0 c 0.0133,0.0673 0.02,0.189 0.02,0.365 v 0 0.527 c 0,0.368 0.008,0.60067 0.025,0.698 0.0173,0.0973 0.0507,0.19067 0.1,0.28 v 0 h -0.413 c -0.0407,-0.082 -0.067,-0.178 -0.079,-0.288 z m -0.033,-0.738 v -0.145 c -0.14333,0.0587 -0.35867,0.10833 -0.646,0.149 v 0 c -0.16267,0.0233 -0.27767,0.0497 -0.345,0.079 -0.0673,0.0293 -0.11933,0.0723 -0.156,0.129 -0.0367,0.0567 -0.055,0.11933 -0.055,0.188 v 0 c 0,0.10533 0.04,0.193 0.12,0.263 0.08,0.0707 0.19667,0.106 0.35,0.106 v 0 c 0.15267,0 0.28833,-0.0333 0.407,-0.1 0.11867,-0.0667 0.20567,-0.158 0.261,-0.274 v 0 c 0.0427,-0.0893 0.064,-0.221 0.064,-0.395 z m 1.404,1.026 h -0.395 v -2.333 h 0.356 v 0.353 c 0.0907,-0.16533 0.17433,-0.27433 0.251,-0.327 0.0773,-0.0527 0.162,-0.079 0.254,-0.079 v 0 c 0.13333,0 0.26867,0.0423 0.406,0.127 v 0 l -0.136,0.367 c -0.0967,-0.0573 -0.19333,-0.086 -0.29,-0.086 v 0 c -0.086,0 -0.16367,0.026 -0.233,0.078 -0.0687,0.052 -0.11767,0.12433 -0.147,0.217 v 0 c -0.044,0.14067 -0.066,0.29433 -0.066,0.461 v 0 z m 1.09,0.899 v 0 l -0.044,-0.372 c 0.0867,0.0233 0.162,0.035 0.226,0.035 v 0 c 0.088,0 0.15833,-0.0143 0.211,-0.043 0.0527,-0.0293 0.096,-0.0703 0.13,-0.123 v 0 c 0.0247,-0.04 0.065,-0.13833 0.121,-0.295 v 0 c 0.007,-0.022 0.019,-0.0543 0.035,-0.097 v 0 l -0.886,-2.337 h 0.427 l 0.485,1.351 c 0.0633,0.17133 0.12,0.35133 0.17,0.54 v 0 c 0.0453,-0.18133 0.0993,-0.35833 0.162,-0.531 v 0 l 0.499,-1.36 h 0.395 l -0.887,2.373 c -0.0953,0.256 -0.16933,0.43233 -0.222,0.529 v 0 c -0.0707,0.13067 -0.15133,0.22633 -0.242,0.287 -0.0907,0.0607 -0.199,0.091 -0.325,0.091 v 0 c -0.076,0 -0.161,-0.016 -0.255,-0.048 z m 2.828,-2.782 h -0.451 v -0.45 h 0.451 z m 0,1.883 h -0.451 v -0.45 h 0.451 z m 1.841,0 h -0.452 l 1.237,-3.221 h 0.459 l 1.318,3.221 h -0.485 l -0.376,-0.976 h -1.347 z m 0.831,-2.268 -0.354,0.945 h 1.092 l -0.336,-0.892 c -0.10267,-0.27067 -0.179,-0.49333 -0.229,-0.668 v 0 c -0.0407,0.20667 -0.0983,0.41167 -0.173,0.615 z m 2.412,2.268 h -0.395 v -2.333 h 0.356 v 0.353 c 0.0907,-0.16533 0.17433,-0.27433 0.251,-0.327 0.0773,-0.0527 0.162,-0.079 0.254,-0.079 v 0 c 0.13333,0 0.269,0.0423 0.407,0.127 v 0 l -0.137,0.367 c -0.0967,-0.0573 -0.19333,-0.086 -0.29,-0.086 v 0 c -0.086,0 -0.16367,0.026 -0.233,0.078 -0.0687,0.052 -0.11767,0.12433 -0.147,0.217 v 0 c -0.044,0.14067 -0.066,0.29433 -0.066,0.461 v 0 z m 2.991,0 h -0.354 v -0.343 c -0.18133,0.264 -0.428,0.396 -0.74,0.396 v 0 c -0.138,0 -0.26667,-0.0263 -0.386,-0.079 -0.11933,-0.0527 -0.208,-0.119 -0.266,-0.199 -0.058,-0.08 -0.0987,-0.178 -0.122,-0.294 v 0 c -0.016,-0.0773 -0.024,-0.20033 -0.024,-0.369 v 0 -1.445 h 0.395 v 1.294 c 0,0.20667 0.008,0.34567 0.025,0.417 v 0 c 0.0247,0.104 0.0773,0.18567 0.158,0.245 0.0807,0.0593 0.18033,0.089 0.299,0.089 v 0 c 0.11867,0 0.23,-0.0303 0.334,-0.091 0.104,-0.0607 0.17733,-0.14333 0.22,-0.248 0.0433,-0.10467 0.065,-0.25667 0.065,-0.456 v 0 -1.25 h 0.396 z m 2.968,-1.129 v 0 l 0.427,0.107 c -0.0893,0.35 -0.25033,0.617 -0.483,0.801 -0.232,0.184 -0.51567,0.276 -0.851,0.276 v 0 c -0.34733,0 -0.62967,-0.0707 -0.847,-0.212 -0.21733,-0.14133 -0.383,-0.346 -0.497,-0.614 -0.11333,-0.268 -0.17,-0.556 -0.17,-0.864 v 0 c 0,-0.33533 0.064,-0.628 0.192,-0.878 0.128,-0.24933 0.31033,-0.439 0.547,-0.569 0.23667,-0.12933 0.497,-0.194 0.781,-0.194 v 0 c 0.32267,0 0.59367,0.082 0.813,0.246 0.22,0.164 0.37333,0.39467 0.46,0.692 v 0 l -0.42,0.099 c -0.0747,-0.23467 -0.183,-0.40533 -0.325,-0.512 -0.142,-0.10667 -0.32067,-0.16 -0.536,-0.16 v 0 c -0.248,0 -0.455,0.0593 -0.621,0.178 -0.166,0.11867 -0.283,0.278 -0.351,0.478 -0.0673,0.19933 -0.101,0.40533 -0.101,0.618 v 0 c 0,0.274 0.04,0.513 0.12,0.717 0.08,0.20467 0.20433,0.35767 0.373,0.459 0.168,0.10067 0.35033,0.151 0.547,0.151 v 0 c 0.23867,0 0.44067,-0.0687 0.606,-0.206 0.16533,-0.138 0.27733,-0.34233 0.336,-0.613 z m 0.754,-0.038 v 0 c 0,-0.432 0.12,-0.752 0.36,-0.96 v 0 c 0.20067,-0.17267 0.44533,-0.259 0.734,-0.259 v 0 c 0.32067,0 0.583,0.105 0.787,0.315 0.20333,0.21 0.305,0.50033 0.305,0.871 v 0 c 0,0.30067 -0.045,0.537 -0.135,0.709 -0.09,0.172 -0.221,0.30567 -0.393,0.401 -0.172,0.0953 -0.36,0.143 -0.564,0.143 v 0 c -0.32667,0 -0.59067,-0.10467 -0.792,-0.314 -0.20133,-0.21 -0.302,-0.512 -0.302,-0.906 z m 0.406,0 v 0 c 0,0.29867 0.0653,0.52267 0.196,0.672 0.13067,0.14867 0.29467,0.223 0.492,0.223 v 0 c 0.19667,0 0.36,-0.075 0.49,-0.225 0.13067,-0.14933 0.196,-0.377 0.196,-0.683 v 0 c 0,-0.28867 -0.0657,-0.50733 -0.197,-0.656 -0.13133,-0.14867 -0.29433,-0.223 -0.489,-0.223 v 0 c -0.19733,0 -0.36133,0.074 -0.492,0.222 -0.13067,0.148 -0.196,0.37133 -0.196,0.67 z m 4.707,1.167 h -1.162 v -3.221 h 1.109 c 0.25067,0 0.442,0.0153 0.574,0.046 v 0 c 0.18467,0.0427 0.342,0.11967 0.472,0.231 v 0 c 0.17,0.14333 0.297,0.32667 0.381,0.55 0.0847,0.22333 0.127,0.47867 0.127,0.766 v 0 c 0,0.24467 -0.0287,0.46133 -0.086,0.65 -0.0573,0.18933 -0.13067,0.34567 -0.22,0.469 -0.0893,0.124 -0.187,0.22167 -0.293,0.293 -0.106,0.0707 -0.23433,0.12433 -0.385,0.161 -0.15,0.0367 -0.32233,0.055 -0.517,0.055 z m -0.736,-2.841 v 2.461 h 0.688 c 0.212,0 0.37867,-0.0197 0.5,-0.059 0.12067,-0.04 0.217,-0.0957 0.289,-0.167 v 0 c 0.10067,-0.10133 0.17933,-0.23733 0.236,-0.408 0.056,-0.17067 0.084,-0.37767 0.084,-0.621 v 0 c 0,-0.33667 -0.0553,-0.59533 -0.166,-0.776 -0.11,-0.18133 -0.24433,-0.30267 -0.403,-0.364 v 0 c -0.114,-0.044 -0.29767,-0.066 -0.551,-0.066 v 0 z m 3.322,2.841 h -0.426 v -3.221 h 0.426 z m 3.05,-1.129 v 0 l 0.426,0.107 c -0.0893,0.35 -0.25,0.617 -0.482,0.801 -0.232,0.184 -0.51567,0.276 -0.851,0.276 v 0 c -0.34733,0 -0.63,-0.0707 -0.848,-0.212 -0.21733,-0.14133 -0.38267,-0.346 -0.496,-0.614 -0.11333,-0.268 -0.17,-0.556 -0.17,-0.864 v 0 c 0,-0.33533 0.064,-0.628 0.192,-0.878 0.128,-0.24933 0.31033,-0.439 0.547,-0.569 0.23667,-0.12933 0.497,-0.194 0.781,-0.194 v 0 c 0.32267,0 0.59367,0.082 0.813,0.246 0.22,0.164 0.373,0.39467 0.459,0.692 v 0 l -0.419,0.099 c -0.0747,-0.23467 -0.18333,-0.40533 -0.326,-0.512 -0.142,-0.10667 -0.32067,-0.16 -0.536,-0.16 v 0 c -0.24733,0 -0.454,0.0593 -0.62,0.178 -0.16667,0.11867 -0.28367,0.278 -0.351,0.478 -0.0673,0.19933 -0.101,0.40533 -0.101,0.618 v 0 c 0,0.274 0.04,0.513 0.12,0.717 0.08,0.20467 0.204,0.35767 0.372,0.459 0.16867,0.10067 0.351,0.151 0.547,0.151 v 0 c 0.23933,0 0.44167,-0.0687 0.607,-0.206 0.16533,-0.138 0.27733,-0.34233 0.336,-0.613 z m 2.197,1.129 h -0.426 v -2.841 h -1.061 v -0.38 h 2.553 v 0.38 h -1.066 z m 3.709,0.894 h -2.621 v -0.285 h 2.621 z m 1.8,-0.894 h -0.396 v -0.771 h -1.397 v -0.363 l 1.47,-2.087 h 0.323 v 2.087 h 0.435 v 0.363 h -0.435 z m -1.404,-1.134 h 1.008 v -1.452 z m 2.588,1.134 h -0.512 l 1.246,-1.679 -1.099,-1.542 h 0.508 l 0.584,0.826 c 0.122,0.17133 0.20867,0.303 0.26,0.395 v 0 c 0.0713,-0.11667 0.15633,-0.23867 0.255,-0.366 v 0 l 0.648,-0.855 h 0.463 l -1.131,1.518 1.219,1.703 h -0.527 l -0.811,-1.149 c -0.0453,-0.066 -0.092,-0.138 -0.14,-0.216 v 0 c -0.072,0.11733 -0.12333,0.198 -0.154,0.242 v 0 z m 4.32,0 h -0.396 v -0.771 h -1.397 v -0.363 l 1.47,-2.087 h 0.323 v 2.087 h 0.435 v 0.363 h -0.435 z m -1.404,-1.134 h 1.008 v -1.452 z m 2.916,1.134 h -0.451 v -0.45 h 0.451 z"
                 style="fill:#000000;fill-opacity:1;fill-rule:nonzero;stroke:none"
                 id="path814"
                 inkscape:connector-curvature="0" /></g></g></g></g></g></g><g
     inkscape:groupmode="layer"
     id="layer1"
     inkscape:label="Drill"><g
       id="g5331"
       transform="translate(274.50507,245.92884)"><ellipse
         ry="11.990216"
         rx="11.990217"
         cy="-150.16193"
         cx="785.71661"
         id="path5325"
         style="opacity:1;fill:none;fill-opacity:1;stroke:#ff0100;stroke-width:1.26756668;stroke-miterlimit:4;stroke-dasharray:none;stroke-dashoffset:0;stroke-opacity:1" /><ellipse
         style="opacity:1;fill:none;fill-opacity:1;stroke:#ff0100;stroke-width:1.26756668;stroke-miterlimit:4;stroke-dasharray:none;stroke-dashoffset:0;stroke-opacity:1"
         id="ellipse5327"
         cx="969.26862"
         cy="-150.16193"
         rx="11.990217"
         ry="11.990216" /></g><circle
       style="opacity:1;fill:#ff0000;fill-opacity:1;stroke:#ff0100;stroke-width:1;stroke-miterlimit:4;stroke-dasharray:none;stroke-dashoffset:0;stroke-opacity:1"
       id="path5371"
       cx="1060.2217"
       cy="95.766914"
       r="0.97077173" /><circle
       r="0.97077173"
       cy="95.766914"
       cx="1243.7737"
       id="circle5373"
       style="opacity:1;fill:#ff0000;fill-opacity:1;stroke:#ff0100;stroke-width:1;stroke-miterlimit:4;stroke-dasharray:none;stroke-dashoffset:0;stroke-opacity:1" /></g></svg>